<svg xmlns="http://www.w3.org/2000/svg" viewBox="0 0 91.63 127"><defs><style>.cls-1{fill:#fff;}</style></defs><title>Recurso 1</title><g id="Capa_2" data-name="Capa 2"><g id="Capa_1-2" data-name="Capa 1"><path class="cls-1" d="M91.63,71.23c0-15.76-16.94-46.57-16.94-57.91,0-3.94,1.58-5.44,4.33-5.44s4.33,1.5,4.33,5.44v7.8h8.2V13.87C91.55,5,87.21,0,78.78,0S66,5,66,13.87v.06a15.29,15.29,0,0,0-6.89-1.41H46.36V24.35a13.91,13.91,0,0,0-8.3-2.26H25.29V52.94L21.51,29.31H8.83L0,84.47H8l1.5-10H20.1l1.5,10H34V63.75h4.1a13.91,13.91,0,0,0,8.3-2.26v23H55V55.78h4.1c8.67,0,12.92-4.81,12.92-13.63V38C76.93,51.3,83,65,83,71.79c0,3.94-1.73,5.36-4.49,5.36S74,75.73,74,71.79V63.36h-8.2v7.88c0,8.83,4.41,13.87,12.92,13.87S91.63,80.06,91.63,71.23ZM10.56,67l4.18-27.9L18.92,67ZM42.32,50.66c0,3.94-1.5,5.2-4.26,5.2H34V30h4.1c2.76,0,4.26,1.26,4.26,5.2Zm21.06-8c0,3.94-1.5,5.2-4.26,5.2H55V20.4h4.1c2.76,0,4.26,1.26,4.26,5.2Z"/><path class="cls-1" d="M56.05,89.75c-6.38,0-9.69,3.74-9.69,10.28v16.69c0,6.54,3.31,10.28,9.69,10.28s9.69-3.74,9.69-10.28v-5.43H59.6v5.84c0,2.92-1.3,4-3.37,4s-3.37-1-3.37-4V99.63c0-2.92,1.3-4,3.37-4s3.37,1.11,3.37,4V104h6.14v-4C65.74,93.49,62.43,89.75,56.05,89.75Z"/><path class="cls-1" d="M79.41,89.75c-6.38,0-9.87,3.74-9.87,10.28v16.69c0,6.54,3.49,10.28,9.87,10.28s9.87-3.74,9.87-10.28V100C89.28,93.49,85.79,89.75,79.41,89.75Zm3.37,27.38c0,2.92-1.3,4-3.37,4s-3.37-1.11-3.37-4V99.63c0-2.92,1.3-4,3.37-4s3.37,1.11,3.37,4Z"/><path class="cls-1" d="M32,101.61a7.2,7.2,0,1,0,7.28,7.2A7.24,7.24,0,0,0,32,101.61Z"/></g></g></svg>