<svg xmlns="http://www.w3.org/2000/svg" width="30" height="30"><g data-name="Layer 2"><path data-name="Trazado 7083" d="M15 14a4 4 0 1 0-4-4 4 4 0 0 0 4 4zm0-6a2 2 0 1 1-2 2 2 2 0 0 1 2-2z" fill="#4d4d4d" opacity=".3"/><path data-name="Trazado 7084" d="M15 16a7 7 0 0 0-7 7 1 1 0 0 0 2 0 5 5 0 1 1 10 0 1 1 0 0 0 2 0 7 7 0 0 0-7-7z" fill="#4d4d4d" opacity=".3"/><g data-name="Elipse 15" fill="none" stroke="rgba(51,51,51,0.3)"><circle cx="15" cy="15" r="15" stroke="none"/><circle cx="15" cy="15" r="14.5"/></g></g></svg>