<svg xmlns="http://www.w3.org/2000/svg" xmlns:xlink="http://www.w3.org/1999/xlink" width="74" height="74" viewBox="0 0 74 74">
  <defs>
    <filter id="Elipse_4" x="0" y="0" width="74" height="74" filterUnits="userSpaceOnUse">
      <feOffset dy="3" input="SourceAlpha"/>
      <feGaussianBlur stdDeviation="3" result="blur"/>
      <feFlood flood-opacity="0.161"/>
      <feComposite operator="in" in2="blur"/>
      <feComposite in="SourceGraphic"/>
    </filter>
  </defs>
  <g id="Grupo_1938" data-name="Grupo 1938" transform="translate(-279 -642)">
    <g transform="matrix(1, 0, 0, 1, 279, 642)" filter="url(#Elipse_4)">
      <circle id="Elipse_4-2" data-name="Elipse 4" cx="28" cy="28" r="28" transform="translate(9 6)" fill="#25d366"/>
    </g>
    <path id="ic_whatsapp_white" d="M17.727,14.57c-.3-.152-1.79-.878-2.067-.979s-.479-.152-.682.152-.781.977-.956,1.177-.354.213-.654.076a8.222,8.222,0,0,1-2.434-1.5,9.191,9.191,0,0,1-1.682-2.1c-.176-.3-.019-.471.132-.623.138-.137.3-.35.457-.53a2.568,2.568,0,0,0,.3-.5.557.557,0,0,0-.025-.531c-.076-.152-.681-1.641-.934-2.235s-.493-.517-.681-.517c-.174-.015-.376-.015-.578-.015a1.142,1.142,0,0,0-.807.364A3.382,3.382,0,0,0,6.056,9.313a5.928,5.928,0,0,0,1.235,3.115,13.509,13.509,0,0,0,5.167,4.544c.723.3,1.287.486,1.726.637a4.191,4.191,0,0,0,1.9.123,3.118,3.118,0,0,0,2.042-1.445,2.508,2.508,0,0,0,.182-1.444c-.075-.137-.274-.213-.577-.35m-5.517,7.541H12.2a10.135,10.135,0,0,1-5.121-1.4l-.365-.217-3.8.988,1.018-3.693-.242-.38A10.048,10.048,0,0,1,19.343,4.94a9.916,9.916,0,0,1,2.947,7.082A10.06,10.06,0,0,1,12.225,22.036M20.789,3.494A12.3,12.3,0,0,0,12.2,0,12.045,12.045,0,0,0,1.718,18.072L0,24.314l6.418-1.674A12.22,12.22,0,0,0,12.2,24.107h.006A12.1,12.1,0,0,0,24.314,12.055a11.949,11.949,0,0,0-3.541-8.521" transform="translate(304 664)" fill="#fff"/>
  </g>
</svg>
