<svg xmlns="http://www.w3.org/2000/svg" viewBox="0 0 91.03 91"><defs><style>.cls-1,.cls-2{fill:#4d4d4d;stroke:#fff;}</style></defs><title>Recurso 1</title><g id="Capa_2" data-name="Capa 2"><g id="Capa_1-2" data-name="Capa 1"><g id="graph_counters" data-name="graph counters"><path id="Trazado_7110" data-name="Trazado 7110" class="cls-1" d="M37.62,44H35.38a3.38,3.38,0,0,1-6.76,0H26.38a5.62,5.62,0,1,0,11.24,0Z"/><path id="Trazado_7111" data-name="Trazado 7111" class="cls-1" d="M89,48.5H56A1.5,1.5,0,0,0,54.5,50V60.63A10.85,10.85,0,0,0,53,60.5H41V53.57A17.87,17.87,0,0,0,49.74,41h1a5.25,5.25,0,0,0,0-10.5H50v-3h1.5A1.5,1.5,0,0,0,53,26h0V22.89a21,21,0,0,0-42,0,1.36,1.36,0,0,0,0,.29l1.46,7.4A5.24,5.24,0,0,0,13.25,41h1A17.82,17.82,0,0,0,23,53.63V60.5H11A10.51,10.51,0,0,0,.5,71V89A1.5,1.5,0,0,0,2,90.5H89A1.5,1.5,0,0,0,90.5,89V50A1.5,1.5,0,0,0,89,48.5ZM54.5,63.66V87.5H39.23L37.05,76.59l1.52-1.14,3.34,1.43a1.5,1.5,0,0,0,2-.79s0-.07,0-.11L48.08,63.5H53A8.39,8.39,0,0,1,54.5,63.66Zm-22.5,9,3.39,1.45L32,76.63l-3.39-2.55Zm-.9,7.07a1.5,1.5,0,0,0,1.8,0l1.49-1.12,1.78,8.92H27.83l1.78-8.92ZM44.92,63.5l-3.33,10-6.16-2.64C37.88,69.29,41,66.7,41,63.5Zm.58-24h-6A1.5,1.5,0,0,1,38,38V35h.85a2.62,2.62,0,1,0,4.3,3,2.6,2.6,0,0,0,0-3H47v3A1.5,1.5,0,0,1,45.5,39.5ZM35,33.5H29A1.5,1.5,0,0,0,27.5,32H17V30.79l5.32-13.31c4.3,1.81,17.21,7.17,24.68,9.31V32H36.5A1.5,1.5,0,0,0,35,33.5ZM17,38V35h3.85a2.62,2.62,0,1,0,4.3,3,2.6,2.6,0,0,0,0-3H26v3a1.5,1.5,0,0,1-1.5,1.5h-6A1.5,1.5,0,0,1,17,38Zm6.38-1.5c0,.41-.76.41-.76,0a.38.38,0,0,1,.76,0Zm18,0c0,.41-.76.41-.76,0a.38.38,0,0,1,.76,0Zm9.37-3a2.25,2.25,0,0,1,0,4.5H50V33.5ZM25.54,6.09A18,18,0,0,1,50,22.89v1.57C42.49,22.84,22.3,14.2,22.09,14.12a1.49,1.49,0,0,0-2,.79v0L15,27.74l-1-5A18.11,18.11,0,0,1,25.54,6.09ZM13.25,38a2.25,2.25,0,0,1,0-4.5H14V38Zm4.4,4.41a4.09,4.09,0,0,0,.85.09h6A4.5,4.5,0,0,0,29,38V36.5h6V38a4.51,4.51,0,0,0,4.5,4.5h6a4.8,4.8,0,0,0,.85-.08,14.82,14.82,0,0,1-3.84,6.28,15,15,0,0,1-24.86-6.29ZM31.66,56H32a17.78,17.78,0,0,0,6-1V63.5c0,2.13-3.46,4.57-6,5.84-2.29-1.15-6-3.65-6-5.84V55A18.19,18.19,0,0,0,31.66,56ZM28.57,70.84l-6.16,2.64-3.33-10H23c0,3.2,3.12,5.79,5.57,7.34ZM3.5,71A7.5,7.5,0,0,1,11,63.5h4.92L20.08,76a1.5,1.5,0,0,0,1.9,1l.11,0,3.34-1.43L27,76.59,24.77,87.5H3.5Zm84,16.5h-30v-36h30Z"/><path id="Trazado_7112" data-name="Trazado 7112" class="cls-1" d="M62,63.5H83A1.5,1.5,0,0,0,84.5,62V56A1.5,1.5,0,0,0,83,54.5H62A1.5,1.5,0,0,0,60.5,56v6A1.5,1.5,0,0,0,62,63.5Zm1.5-6h18v3h-18Z"/><path id="Trazado_7113" data-name="Trazado 7113" class="cls-1" d="M60.5,66.5h6v3h-6Z"/><path id="Trazado_7114" data-name="Trazado 7114" class="cls-1" d="M69.5,66.5h6v3h-6Z"/><path id="Trazado_7115" data-name="Trazado 7115" class="cls-1" d="M78.5,66.5h6v3h-6Z"/><path id="Trazado_7116" data-name="Trazado 7116" class="cls-1" d="M60.5,72.5h6v3h-6Z"/><path id="Trazado_7117" data-name="Trazado 7117" class="cls-1" d="M69.5,72.5h6v3h-6Z"/><path id="Trazado_7118" data-name="Trazado 7118" class="cls-1" d="M78.5,72.5h6v3h-6Z"/><path id="Trazado_7119" data-name="Trazado 7119" class="cls-1" d="M60.5,78.5h6v3h-6Z"/><path id="Trazado_7120" data-name="Trazado 7120" class="cls-1" d="M69.5,78.5h6v3h-6Z"/><path id="Trazado_7121" data-name="Trazado 7121" class="cls-1" d="M78.5,78.5h6v3h-6Z"/><path id="Trazado_7122" data-name="Trazado 7122" class="cls-1" d="M72.5.5a18,18,0,0,0-18,18,17.83,17.83,0,0,0,6.35,13.7l-1.77,5.33A1.49,1.49,0,0,0,60,39.42a1.54,1.54,0,0,0,1,0l8.44-3.17A18,18,0,0,0,75.58.76,18.74,18.74,0,0,0,72.5.5Zm0,33a15.45,15.45,0,0,1-2.88-.28,1.48,1.48,0,0,0-.81.06l-5.89,2.21L64,32.16a1.53,1.53,0,0,0-.52-1.68,15,15,0,1,1,9,3Z"/><path id="Trazado_7123" data-name="Trazado 7123" class="cls-2" d="M63.93,24.94l16.5-16.5,2.12,2.13-16.5,16.5Z"/><circle id="Elipse_20" data-name="Elipse 20" class="cls-1" cx="78.5" cy="23" r="3"/><circle id="Elipse_21" data-name="Elipse 21" class="cls-1" cx="68" cy="12.5" r="3"/></g></g></g></svg>