<svg xmlns="http://www.w3.org/2000/svg" viewBox="0 0 91 91"><defs><style>.cls-1{fill:#4d4d4d;stroke:#fff;}</style></defs><title>Recurso 1</title><g id="Capa_2" data-name="Capa 2"><g id="Capa_1-2" data-name="Capa 1"><g id="graph_owners" data-name="graph owners"><path id="Trazado_7085" data-name="Trazado 7085" class="cls-1" d="M23,20h6v3H23Z"/><path id="Trazado_7086" data-name="Trazado 7086" class="cls-1" d="M29,36.5h1.5A4.51,4.51,0,0,0,35,32V29H32v3a1.5,1.5,0,0,1-1.5,1.5H29Z"/><circle id="Elipse_16" data-name="Elipse 16" class="cls-1" cx="26" cy="26" r="1.5"/><path id="Trazado_7087" data-name="Trazado 7087" class="cls-1" d="M35,20h6v3H35Z"/><circle id="Elipse_17" data-name="Elipse 17" class="cls-1" cx="38" cy="26" r="1.5"/><path id="Trazado_7088" data-name="Trazado 7088" class="cls-1" d="M86,29H64.32a4.52,4.52,0,0,0-3.07,1.2L50.89,39.84l-5.27-3.08A14.88,14.88,0,0,0,47,30.5V9.5a6,6,0,0,0-6-6h-.81A6,6,0,0,0,35,.5H29a12,12,0,0,0-12,12v18a14.88,14.88,0,0,0,1.38,6.26L4.22,45A7.54,7.54,0,0,0,.5,51.5V89A1.5,1.5,0,0,0,2,90.5H86A4.51,4.51,0,0,0,90.5,86V33.5A4.51,4.51,0,0,0,86,29ZM45.5,74.51l-3.36,2.4L33.5,75.39V48.28l3.33,4.16a1.54,1.54,0,0,0,1.09.56H38a1.5,1.5,0,0,0,1.06-.44l6.5-6.5a4.74,4.74,0,0,0-.06.75ZM20,30.5V17H30.5a10.5,10.5,0,0,0,7.41-3.06A8.06,8.06,0,0,0,44,17V30.5a12,12,0,0,1-24,0ZM46.58,40.8l-8.46,8.46-3.23-4a15,15,0,0,0,9.21-5.87ZM44,9.5V14a5,5,0,0,1-4.2-2.62A10.44,10.44,0,0,0,41,6.5,3,3,0,0,1,44,9.5Zm-24,3a9,9,0,0,1,9-9h6a3,3,0,0,1,3,3A7.5,7.5,0,0,1,30.5,14H20Zm9.1,32.72-3.22,4L17.42,40.8l2.48-1.45a15.05,15.05,0,0,0,9.21,5.87ZM3.5,87.5V82.44A18.19,18.19,0,0,0,8.56,87.5Zm37.5,0H18.5a15,15,0,0,1-15-15v-21a4.51,4.51,0,0,1,2.23-3.89l9-5.25,10.2,10.2A1.5,1.5,0,0,0,26,53h.08a1.5,1.5,0,0,0,1.09-.56l3.33-4.16V74.86L22.22,73.4A4.5,4.5,0,0,1,18.5,69V60.5h-3V69a7.49,7.49,0,0,0,6.2,7.38L41,79.76Zm3,0V79.27l8.67-6.19a1,1,0,0,1,1.49,1L53,79.71a1.49,1.49,0,0,0,.8,1.63l2.51,1.26a13.47,13.47,0,0,0,8.26,1.24l3.75-.63a.43.43,0,0,1,.49.36.42.42,0,0,1-.23.45l-4.74,2.37a10.51,10.51,0,0,1-4.7,1.11ZM87.5,86A1.5,1.5,0,0,1,86,87.5H68.35l1.59-.8a3.43,3.43,0,0,0-2.09-6.45l-3.75.62a10.47,10.47,0,0,1-6.42-1l-1.48-.74.91-4.54a4,4,0,0,0-6.18-4L48.5,72.37V46.81a1.48,1.48,0,0,1,.48-1.1L61.64,33.94V42.5a1.5,1.5,0,0,1-1.5,1.5H54.5v3h5.64a4.51,4.51,0,0,0,4.5-4.5V32H86a1.5,1.5,0,0,1,1.5,1.5Z"/><path id="Trazado_7089" data-name="Trazado 7089" class="cls-1" d="M53.36,53h3v3h-3Z"/><path id="Trazado_7090" data-name="Trazado 7090" class="cls-1" d="M59,53H69.86v3H59Z"/><path id="Trazado_7091" data-name="Trazado 7091" class="cls-1" d="M72.86,53H83v3H72.86Z"/><path id="Trazado_7092" data-name="Trazado 7092" class="cls-1" d="M53.36,59H60.5v3H53.36Z"/><path id="Trazado_7093" data-name="Trazado 7093" class="cls-1" d="M63.5,59H77.36v3H63.5Z"/><path id="Trazado_7094" data-name="Trazado 7094" class="cls-1" d="M80.36,59H83v3H80.36Z"/><path id="Trazado_7095" data-name="Trazado 7095" class="cls-1" d="M59,65H69.5v3H59Z"/><path id="Trazado_7096" data-name="Trazado 7096" class="cls-1" d="M72.5,65H83v3H72.5Z"/><path id="Trazado_7097" data-name="Trazado 7097" class="cls-1" d="M74,80h9v3H74Z"/><path id="Trazado_7098" data-name="Trazado 7098" class="cls-1" d="M72.5,74H83v3H72.5Z"/><path id="Trazado_7099" data-name="Trazado 7099" class="cls-1" d="M66.5,74h3v3h-3Z"/><path id="Trazado_7100" data-name="Trazado 7100" class="cls-1" d="M71,36.5h3v3H71Z"/><path id="Trazado_7101" data-name="Trazado 7101" class="cls-1" d="M77,36.5h6v3H77Z"/><path id="Trazado_7102" data-name="Trazado 7102" class="cls-1" d="M80,42.5h3v3H80Z"/><path id="Trazado_7103" data-name="Trazado 7103" class="cls-1" d="M71,42.5h6v3H71Z"/></g></g></g></svg>