<svg xmlns="http://www.w3.org/2000/svg" viewBox="0 0 74.74 79.11"><defs><style>.cls-1{fill:#4d4d4d;}</style></defs><title>Recurso 2</title><g id="Capa_2" data-name="Capa 2"><g id="_96" data-name="96"><path class="cls-1" d="M48.24,79.11H7.72A7.73,7.73,0,0,1,0,71.39V17A7.73,7.73,0,0,1,7.72,9.32h7.72a.65.65,0,0,1,.65.65v2.09a1.12,1.12,0,0,0,1.12,1.12H38.76a1.12,1.12,0,0,0,1.11-1.12V10a.65.65,0,0,1,.65-.65h7.72A7.73,7.73,0,0,1,56,17V21a.63.63,0,0,1-.09.33L45.73,38.87l1.5,8.18L54.54,44l.21-.36a.65.65,0,0,1,1.21.32V71.39A7.73,7.73,0,0,1,48.24,79.11ZM7.72,10.62A6.43,6.43,0,0,0,1.3,17V71.39a6.43,6.43,0,0,0,6.42,6.42H48.24a6.43,6.43,0,0,0,6.42-6.42v-26L47,48.56a.65.65,0,0,1-.89-.49l-1.69-9.2a.7.7,0,0,1,.08-.45L54.66,20.79V17a6.43,6.43,0,0,0-6.42-6.42H41.17v1.44a2.41,2.41,0,0,1-2.41,2.42H17.21a2.42,2.42,0,0,1-2.42-2.42V10.62Z"/><path class="cls-1" d="M38.76,14.48H17.21a2.42,2.42,0,0,1-2.42-2.42V7.88a2.42,2.42,0,0,1,2.42-2.41H21.9a6.11,6.11,0,0,1,12.16,0h4.7a2.41,2.41,0,0,1,2.41,2.41v4.18A2.41,2.41,0,0,1,38.76,14.48ZM17.21,6.77a1.12,1.12,0,0,0-1.12,1.11v4.18a1.12,1.12,0,0,0,1.12,1.12H38.76a1.12,1.12,0,0,0,1.11-1.12V7.88a1.11,1.11,0,0,0-1.11-1.11H33.45a.65.65,0,0,1-.65-.65,4.82,4.82,0,1,0-9.63,0,.65.65,0,0,1-.65.65Z"/><path class="cls-1" d="M46,29.1H10a.65.65,0,1,1,0-1.3H46a.65.65,0,1,1,0,1.3Z"/><path class="cls-1" d="M46.73,48.61a.71.71,0,0,1-.31-.08.68.68,0,0,1-.33-.46l-1.69-9.2a.7.7,0,0,1,.08-.45L63.16,6.08A3.75,3.75,0,0,1,66.4,4.22a3.8,3.8,0,0,1,1.86.49l4.61,2.67a3.74,3.74,0,0,1,1.37,5.1L55.56,44.82a.7.7,0,0,1-.31.28L47,48.56A.7.7,0,0,1,46.73,48.61Zm-1-9.74,1.5,8.18L54.55,44,73.11,11.83a2.44,2.44,0,0,0-.89-3.33L67.61,5.84a2.52,2.52,0,0,0-3.33.89Z"/><path class="cls-1" d="M72.08,15.57a.66.66,0,0,1-.33-.09l-10-5.75a.65.65,0,1,1,.65-1.12l10,5.75a.64.64,0,0,1,.24.88A.65.65,0,0,1,72.08,15.57Z"/><path class="cls-1" d="M55,45.15a.62.62,0,0,1-.32-.09l-10-5.75a.65.65,0,1,1,.65-1.12l10,5.74A.65.65,0,0,1,55,45.15Z"/><path class="cls-1" d="M50,42.27a.62.62,0,0,1-.33-.08.65.65,0,0,1-.24-.89L66.54,11.72a.64.64,0,0,1,.88-.24.65.65,0,0,1,.24.89L50.59,42A.64.64,0,0,1,50,42.27Z"/><path class="cls-1" d="M46.73,48.61h-36a.65.65,0,0,1,0-1.3h36a.65.65,0,0,1,0,1.3Z"/><path class="cls-1" d="M10.93,71.71a.68.68,0,0,1-.46-.19.66.66,0,0,1,0-.92l7.36-7.36a.66.66,0,0,1,.73-.13l7.2,3.32,5.46-5.24a.64.64,0,0,1,.49-.18l4,.22,6.54-6.55a.66.66,0,0,1,.92,0,.64.64,0,0,1,0,.92l-6.75,6.76a.69.69,0,0,1-.5.19l-4-.23-5.58,5.35a.64.64,0,0,1-.73.12l-7.18-3.31-7,7A.68.68,0,0,1,10.93,71.71Z"/><path class="cls-1" d="M43.49,59.29a.65.65,0,0,1-.65-.65V55.19H39.69a.65.65,0,1,1,0-1.3h3.8a.66.66,0,0,1,.65.65v4.1A.66.66,0,0,1,43.49,59.29Z"/></g></g></svg>