<svg xmlns="http://www.w3.org/2000/svg" viewBox="0 0 66.44 91"><defs><style>.cls-1{fill:#4d4d4d;stroke:#fff;}</style></defs><title>Recurso 1</title><g id="Capa_2" data-name="Capa 2"><g id="Capa_1-2" data-name="Capa 1"><g id="graph_administrator" data-name="graph administrator"><g id="Grupo_2039" data-name="Grupo 2039"><g id="Grupo_2038" data-name="Grupo 2038"><path id="Trazado_7108" data-name="Trazado 7108" class="cls-1" d="M58.35,63h0a14.22,14.22,0,0,0-2.8-1.43l-8.14-3.39-5.73-3.79a1.4,1.4,0,0,0-.17-.09V51.81a14.94,14.94,0,0,0,8.14-11.34,6.8,6.8,0,0,0,4.47-11.36v-8.7A19.92,19.92,0,0,0,34.22.5H32.67a19.92,19.92,0,0,0-19.9,19.91V29a6.8,6.8,0,0,0,4.37,11.46,15,15,0,0,0,8.15,11.34v2.3l-6,3.94a1.13,1.13,0,0,0-.24.08l-8.18,3.4a15.84,15.84,0,0,0-5.2,3.33A16.86,16.86,0,0,0,.51,77.56V89.07A1.43,1.43,0,0,0,1.94,90.5H18.82a1.43,1.43,0,0,0,0-2.86h-4.4V77a1.43,1.43,0,1,0-2.86,0v10.6H3.37V77.56c0-10.3,8.15-13.22,8.49-13.34l.09,0,6.82-2.84,7.36,26.29H23.29a1.43,1.43,0,0,0,0,2.86H64.5a1.42,1.42,0,0,0,1.42-1.43V77.56A16.67,16.67,0,0,0,58.35,63ZM45.11,60.05l-4.3,8.84L35.47,65l5.64-5.86a1.41,1.41,0,0,0,.39-1.17,1.09,1.09,0,0,0,0-.18v-.08Zm-8.68,9.17-1.13,3H31.46l-1.27-3,3.1-2.28ZM28.13,58a1.94,1.94,0,0,0,0-.24V52.89a14.65,14.65,0,0,0,3.79.49h2.93a14.63,14.63,0,0,0,3.78-.49v4.65l-5.32,5.52Zm24.92-24.3a4,4,0,0,1-3.25,3.88V29.81a4,4,0,0,1,3.25,3.88ZM17,37.57a3.94,3.94,0,0,1,0-7.76Zm1.44-12h-.2l-.1,0h-.06l-.08,0-.06,0-.07,0-.07,0-.05,0-.07,0-.05,0-.07,0,0,0a.15.15,0,0,1-.06.05l0,.05-.05,0,0,.05,0,.05a.21.21,0,0,1,0,.06l0,.05,0,.06,0,.06,0,.07s0,0,0,.06a.24.24,0,0,0,0,.07s0,0,0,.06,0,.05,0,.08a.13.13,0,0,0,0,.06s0,.05,0,.08,0,0,0,.06v.06a7.21,7.21,0,0,0-1.38.29v-6.8a17.07,17.07,0,0,1,17-17h1.54A17.07,17.07,0,0,1,51.27,20.41v6.84a6.77,6.77,0,0,0-1.47-.32v-.11s0,0,0-.06a.25.25,0,0,0,0-.08s0-.05,0-.07a.64.64,0,0,1,0-.07l0-.07,0,0a.26.26,0,0,0,0-.08l0-.05,0-.07,0,0,0-.06,0-.05,0-.06s0,0-.05-.05l0,0-.06-.05,0,0-.06-.05,0,0-.06,0-.07,0-.06,0-.07,0-.06,0-.09,0h0c-5.6-1.27-7.28-8.31-7.3-8.38a1.44,1.44,0,0,0-1.71-1.08,1.49,1.49,0,0,0-.85.56c-6.35,8.78-20.17,8.87-20.4,8.87Zm1.42,12.93V28.33c3.65-.23,13.36-1.44,19.6-8,1.08,2.53,3.31,6.23,7.47,7.67V38.45A12.08,12.08,0,0,1,34.86,50.52H31.93A12.09,12.09,0,0,1,19.86,38.45Zm5.43,19.08v.22a1.59,1.59,0,0,0,.06.43,1.42,1.42,0,0,0,.37,1.45l5.44,5.3-5.38,4-4.3-8.84Zm2.35,24.9-2.8-10,.06,0a1.4,1.4,0,0,0,1.19-.24l1.74-1.27L29,73.82Zm2.05,5.21,2-12.57h3.36l2,12.57Zm8.07-13.86L38.82,71l1.67,1.23a1.42,1.42,0,0,0,1.53.1L39.17,82.48ZM63.07,87.64H54.88V77A1.43,1.43,0,1,0,52,77v10.6H40.69L48,61.49l6.47,2.7.09,0a11.64,11.64,0,0,1,2.22,1.14h0c2.86,1.86,6.28,5.49,6.28,12.19Z"/><path id="Trazado_7109" data-name="Trazado 7109" class="cls-1" d="M35.07,39.75a1.43,1.43,0,0,0,0-2.86H34v-3.3a1.43,1.43,0,1,0-2.86,0v4.73a1.43,1.43,0,0,0,1.43,1.43h2.48Z"/></g></g></g></g></g></svg>