<svg xmlns="http://www.w3.org/2000/svg" viewBox="0 0 79.39 91"><defs><style>.cls-1{fill:#4d4d4d;stroke:#fff;}</style></defs><title>Recurso 1</title><g id="Capa_2" data-name="Capa 2"><g id="Capa_1-2" data-name="Capa 1"><g id="grph_administrative_board" data-name="grph administrative board"><path id="Trazado_7104" data-name="Trazado 7104" class="cls-1" d="M64.55,67.69,49.66,61.6a4.35,4.35,0,0,1-2.71-4v-1a26.92,26.92,0,0,0,9.81-12.48h.35a7.27,7.27,0,0,0,7.26-7.26V25.18a24.68,24.68,0,1,0-49.35,0V36.79a7.26,7.26,0,0,0,7.25,7.26h.35a26.92,26.92,0,0,0,9.81,12.48v1a4.33,4.33,0,0,1-2.7,4L14.84,67.69A23,23,0,0,0,.5,89.05V90.5H78.89V89.05A23,23,0,0,0,64.55,67.69ZM54,72.5l-5.7,4.27,0-.14a3.77,3.77,0,0,0,1.48-3V72.28l2.24-6.55.27.11ZM34.49,87.6l-6-6,2.79-4.19L34.76,87.6ZM27,65.84l.27-.11,2.23,6.54v1.36a3.83,3.83,0,0,0,1.49,3l.05.14-5.7-4.27Zm4.16-1.73,1.55,1.77a3.81,3.81,0,0,0-2,1L30,64.63l.84-.34.36-.18Zm17.37.18.84.34-.76,2.22a3.85,3.85,0,0,0-2-1l1.55-1.77c.12.06.23.13.36.18Zm-4.91,5.53,2-1a.92.92,0,0,1,1.22.48.88.88,0,0,1,.07.32v4a.93.93,0,0,1-1,.88,1.3,1.3,0,0,1-.34-.08l-2-1a4.22,4.22,0,0,0,0-3.61Zm-2.5,1.8a1.46,1.46,0,1,1-1.46-1.45,1.46,1.46,0,0,1,1.46,1.45h0Zm-8.71,2v-4a.92.92,0,0,1,1-.88,1.3,1.3,0,0,1,.34.08l2,1a4.22,4.22,0,0,0,0,3.61l-2,1a.91.91,0,0,1-1.29-.8Zm1.87,3.67A3.64,3.64,0,0,0,35,77l2.88-1.44a4.26,4.26,0,0,0,3.56,0L44.35,77a3.64,3.64,0,0,0,.72.26L41.56,87.6H37.83ZM44.63,87.6,48.1,77.42l2.79,4.19-6,6ZM57.71,41.08a26.9,26.9,0,0,0,.86-6.68V32.7a4.33,4.33,0,0,1-.86,8.38ZM39.69,3.4A21.8,21.8,0,0,1,61.47,25.18V31a7.19,7.19,0,0,0-2.9-1.34V26.63H57.11a6.69,6.69,0,0,1-5.56-3l-.92-1.38H28.76l-.92,1.38a6.69,6.69,0,0,1-5.57,3H20.82v3.05A7.19,7.19,0,0,0,17.92,31V25.18A21.81,21.81,0,0,1,39.69,3.4ZM17.92,36.79a4.36,4.36,0,0,1,2.9-4.09v1.7a27,27,0,0,0,.85,6.69A4.34,4.34,0,0,1,17.92,36.79Zm5.81-2.39v-5a9.52,9.52,0,0,0,6.52-4.16l.06-.08H49.08l.06.08a9.52,9.52,0,0,0,6.52,4.16v5A24,24,0,0,1,39.69,57,24,24,0,0,1,23.73,34.4ZM39.24,59.94l.45.16.46-.16a26.88,26.88,0,0,0,4-1.67,7.18,7.18,0,0,0,1.77,4.1L41.3,67.59a4.25,4.25,0,0,0-3.21,0l-4.57-5.22a7.18,7.18,0,0,0,1.77-4.1,28.05,28.05,0,0,0,4,1.68ZM15.94,70.38,23.7,67.2l-1.61,6.46,5.47,4.11L24.76,82l5.62,5.63H17.92V78.89H15V87.6H3.45A20.11,20.11,0,0,1,15.94,70.38ZM64.37,87.6V78.89h-2.9V87.6H49L54.62,82l-2.8-4.2,5.48-4.11L55.69,67.2l7.76,3.18A20.07,20.07,0,0,1,75.93,87.6Z"/><circle id="Elipse_18" data-name="Elipse 18" class="cls-1" cx="48.4" cy="32.44" r="1.45"/><circle id="Elipse_19" data-name="Elipse 19" class="cls-1" cx="30.98" cy="32.44" r="1.45"/><path id="Trazado_7105" data-name="Trazado 7105" class="cls-1" d="M45.5,45.5H42.6a2.91,2.91,0,1,1-5.81,0h-2.9a5.81,5.81,0,1,0,11.61,0Z"/><path id="Trazado_7106" data-name="Trazado 7106" class="cls-1" d="M55.44,22.51,58.31,22a18.69,18.69,0,0,0-.82-3.15l-2.74,1A15.19,15.19,0,0,1,55.44,22.51Z"/><path id="Trazado_7107" data-name="Trazado 7107" class="cls-1" d="M53.53,17.2,56,15.74A18.93,18.93,0,0,0,39.69,6.31v2.9A16,16,0,0,1,53.53,17.2Z"/></g></g></g></svg>