<svg xmlns="http://www.w3.org/2000/svg" width="20" height="20"><g fill="#4d4d4d"><path d="M9.4 14.3a.4.4 0 1 0 .3 0 .4.4 0 0 0-.3 0zM16.9 13a.4.4 0 1 0 .2.2.4.4 0 0 0-.2-.1zM5.3 11.2a.4.4 0 1 0 .3.1.4.4 0 0 0-.3 0z"/><path d="M20 4.2a.4.4 0 0 0-.4-.4H19a4.2 4.2 0 0 0-.3-.7l.4-.5a.4.4 0 0 0 0-.5L18 .9a.4.4 0 0 0-.5 0l-.5.4a4.2 4.2 0 0 0-.7-.3V.4a.4.4 0 0 0-.4-.4H14a.4.4 0 0 0-.4.4V1a4.2 4.2 0 0 0-.8.3l-.4-.4a.4.4 0 0 0-.6 0L10.7 2a.4.4 0 0 0 0 .3H1.5A1.6 1.6 0 0 0 0 4v10.8a1.6 1.6 0 0 0 1.6 1.5h6.2v1.4h-1A1.4 1.4 0 0 0 5.4 19v.5a.4.4 0 0 0 .4.4H13a.4.4 0 0 0 .4-.4v-.5a1.4 1.4 0 0 0-1.4-1.4h-1v-1.4h6.2a1.6 1.6 0 0 0 1.6-1.5V8.4l.3-.3a.4.4 0 0 0 0-.6l-.4-.4a4.2 4.2 0 0 0 .3-.8h.6A.4.4 0 0 0 20 6zm-7.4 14.9v.1H6.2v-.1a.6.6 0 0 1 .6-.7H12a.6.6 0 0 1 .6.7zm-2.3-1.4H8.6v-1.4h1.7zm7.7-3a.8.8 0 0 1-.7.8H1.6a.8.8 0 0 1-.8-.7v-1h14.5a.4.4 0 0 0 0-.7H.8V12h3a.4.4 0 1 0 0-.8h-3V4a.8.8 0 0 1 .8-.8H11a4.2 4.2 0 0 0-.3.6h-.6a.4.4 0 0 0-.4.4V6a.4.4 0 0 0 .4.4h.6a4.2 4.2 0 0 0 .4.8l-.5.4a.4.4 0 0 0 0 .6L12 9.3a.4.4 0 0 0 .6 0l.4-.5a4.2 4.2 0 0 0 .8.4v.6a.4.4 0 0 0 .4.4h1.7a.4.4 0 0 0 .4-.4v-.6a4.2 4.2 0 0 0 .7-.4l.5.5a.4.4 0 0 0 .5 0L18 9v5.7zm1.2-9.2h-.5a.4.4 0 0 0-.4.3A3.5 3.5 0 0 1 18 7a.4.4 0 0 0 0 .5l.4.4-.7.6-.3-.3a.4.4 0 0 0-.5-.1 3.5 3.5 0 0 1-1.1.5.4.4 0 0 0-.3.4v.5h-1v-.5a.4.4 0 0 0-.2-.4A3.5 3.5 0 0 1 13 8a.4.4 0 0 0-.4 0l-.4.4-.6-.6.3-.4a.4.4 0 0 0 0-.5 3.5 3.5 0 0 1-.4-1 .4.4 0 0 0-.4-.4h-.5v-.9h.5a.4.4 0 0 0 .4-.3 3.5 3.5 0 0 1 .5-1.1.4.4 0 0 0 0-.5l-.4-.3.6-.7.4.4a.4.4 0 0 0 .5 0 3.5 3.5 0 0 1 1-.4.4.4 0 0 0 .4-.4V.8h.9v.5a.4.4 0 0 0 .3.4 3.5 3.5 0 0 1 1.1.4.4.4 0 0 0 .5 0l.3-.4.7.7-.4.3a.4.4 0 0 0 0 .5 3.4 3.4 0 0 1 .4 1.1.4.4 0 0 0 .4.3h.5v1z"/><path d="M15 2.7A2.4 2.4 0 1 0 17.2 5 2.4 2.4 0 0 0 15 2.7zm0 4a1.6 1.6 0 1 1 1.6-1.6 1.6 1.6 0 0 1-1.7 1.6zM6.4 7.3a.4.4 0 1 0 .3.1.4.4 0 0 0-.3 0z"/><path d="M9.4 7a.4.4 0 0 0 0-.3l-.7-1.1a.4.4 0 0 0-.5-.2l-.4.3a2.5 2.5 0 0 0-.4-.3V5a.4.4 0 0 0-.3-.4H5.7a.4.4 0 0 0-.4.4v.4a2.5 2.5 0 0 0-.3.3l-.4-.3a.4.4 0 0 0-.6.2l-.6 1.1a.4.4 0 0 0 .1.6l.4.2a2.4 2.4 0 0 0 0 .4l-.4.2a.4.4 0 0 0-.1.6L4 9.8a.4.4 0 0 0 .6.2l.4-.3a2.5 2.5 0 0 0 .3.3v.4a.4.4 0 0 0 .4.4h1.4a.4.4 0 0 0 .3-.4V10a2.5 2.5 0 0 0 .4-.3l.4.3a.4.4 0 0 0 .5-.2l.7-1.1a.4.4 0 0 0-.1-.6L8.9 8v-.2-.2l.4-.2a.4.4 0 0 0 .1-.3zm-1.3.4A1.7 1.7 0 0 1 8 8a.4.4 0 0 0 .2.4l.2.1-.2.5-.3-.2a.4.4 0 0 0-.5 0 1.7 1.7 0 0 1-.6.4.4.4 0 0 0-.2.4v.3H6v-.3a.4.4 0 0 0-.2-.4 1.7 1.7 0 0 1-.7-.3.4.4 0 0 0-.4 0h-.3l-.2-.4.2-.1a.4.4 0 0 0 .2-.4 1.7 1.7 0 0 1 0-.7.4.4 0 0 0-.2-.5l-.2-.1.2-.5.3.2a.4.4 0 0 0 .4 0A1.7 1.7 0 0 1 6 6a.4.4 0 0 0 .2-.4v-.3h.6v.3a.4.4 0 0 0 .2.4 1.7 1.7 0 0 1 .6.3.4.4 0 0 0 .5 0h.3l.2.4-.2.1a.4.4 0 0 0-.2.5z"/></g></svg>