<svg xmlns="http://www.w3.org/2000/svg" viewBox="0 0 73.43 79.11"><defs><style>.cls-1{fill:#4d4d4d;}</style></defs><title>Recurso 2</title><g id="Capa_2" data-name="Capa 2"><g id="_96" data-name="96"><path class="cls-1" d="M40.43,79.11H6.81A6.82,6.82,0,0,1,0,72.3V6.82A6.82,6.82,0,0,1,6.81,0H40.43a6.82,6.82,0,0,1,6.81,6.82V25.47a.65.65,0,0,1-.65.65H22.25a1.19,1.19,0,0,0-1.19,1.19V53.86a1.19,1.19,0,0,0,1.19,1.2H46.59a.65.65,0,0,1,.65.65V72.3A6.82,6.82,0,0,1,40.43,79.11ZM6.81,1.3A5.52,5.52,0,0,0,1.3,6.82V72.3a5.51,5.51,0,0,0,5.51,5.51H40.43a5.51,5.51,0,0,0,5.51-5.51V56.36H22.25a2.5,2.5,0,0,1-2.49-2.5V27.31a2.5,2.5,0,0,1,2.49-2.49H45.94v-18A5.52,5.52,0,0,0,40.43,1.3Z"/><path class="cls-1" d="M40.43,79.11H6.81A6.82,6.82,0,0,1,0,72.29V66a.65.65,0,0,1,.65-.65h46a.65.65,0,0,1,.65.65v6.26A6.83,6.83,0,0,1,40.43,79.11ZM1.3,66.68v5.61a5.52,5.52,0,0,0,5.51,5.52H40.43A5.53,5.53,0,0,0,46,72.29V66.68Z"/><path class="cls-1" d="M46.6,13.8H.65A.65.65,0,0,1,0,13.15V6.82A6.82,6.82,0,0,1,6.81,0H40.43a6.83,6.83,0,0,1,6.82,6.82v6.33A.65.65,0,0,1,46.6,13.8ZM1.3,12.5H46V6.82A5.53,5.53,0,0,0,40.43,1.3H6.81A5.52,5.52,0,0,0,1.3,6.82Z"/><path class="cls-1" d="M12,8.87a2,2,0,1,1,2-2A2,2,0,0,1,12,8.87Zm0-2.63a.67.67,0,1,0,.67.66A.67.67,0,0,0,12,6.24Z"/><path class="cls-1" d="M28.61,72.9h-10a.65.65,0,0,1,0-1.3h10a.65.65,0,0,1,0,1.3Z"/><path class="cls-1" d="M28.61,7.55h-10a.65.65,0,1,1,0-1.3h10a.65.65,0,1,1,0,1.3Z"/><path class="cls-1" d="M70.93,56.36H22.25a2.5,2.5,0,0,1-2.49-2.5V27.31a2.5,2.5,0,0,1,2.49-2.49H70.93a2.5,2.5,0,0,1,2.5,2.49V53.86A2.5,2.5,0,0,1,70.93,56.36ZM22.25,26.12a1.19,1.19,0,0,0-1.19,1.19V53.86a1.19,1.19,0,0,0,1.19,1.2H70.93a1.2,1.2,0,0,0,1.2-1.2V27.31a1.2,1.2,0,0,0-1.2-1.19Z"/><path class="cls-1" d="M72.78,36.13H20.41a.65.65,0,0,1-.65-.65V31.42a.65.65,0,0,1,.65-.65H72.78a.65.65,0,0,1,.65.65v4.06A.65.65,0,0,1,72.78,36.13Zm-51.72-1.3H72.13V32.07H21.06Z"/><path class="cls-1" d="M58.72,49.68A3.88,3.88,0,1,1,61.4,43a.65.65,0,0,1,0,.94,2.58,2.58,0,0,0-.8,1.86,2.62,2.62,0,0,0,.8,1.87.63.63,0,0,1,.2.47.66.66,0,0,1-.21.47A3.91,3.91,0,0,1,58.72,49.68Zm0-6.46a2.58,2.58,0,1,0,0,5.16A2.65,2.65,0,0,0,60,48a3.86,3.86,0,0,1,0-4.46A2.55,2.55,0,0,0,58.72,43.22Z"/><path class="cls-1" d="M63.18,49.68a3.88,3.88,0,1,1,3.88-3.88A3.88,3.88,0,0,1,63.18,49.68Zm0-6.46a2.58,2.58,0,1,0,2.58,2.58A2.59,2.59,0,0,0,63.18,43.22Z"/><path class="cls-1" d="M44.94,42.26H23.17a.65.65,0,1,1,0-1.3H44.94a.65.65,0,0,1,0,1.3Z"/><path class="cls-1" d="M44.94,48.34H23.17a.65.65,0,1,1,0-1.3H44.94a.65.65,0,0,1,0,1.3Z"/><path class="cls-1" d="M26.7,29.1H24a.66.66,0,0,1,0-1.31H26.7a.66.66,0,0,1,0,1.31Z"/><path class="cls-1" d="M32.36,29.1H29.62a.66.66,0,0,1,0-1.31h2.74a.66.66,0,0,1,0,1.31Z"/><path class="cls-1" d="M38,29.1H35.27a.66.66,0,0,1,0-1.31H38a.66.66,0,0,1,0,1.31Z"/></g></g></svg>