<svg xmlns="http://www.w3.org/2000/svg" width="86.7" height="88.5" viewBox="0 0 279.4 285.4" shape-rendering="geometricPrecision" text-rendering="geometricPrecision" image-rendering="optimizeQuality" fill-rule="evenodd" clip-rule="evenodd"><defs><style>.fil0{fill:#4d4d4d;fill-rule:nonzero}</style></defs><g id="Capa_x0020_1"><path class="fil0" d="M15.6 0C5 0 0 4.8 0 15.3v202.5c0 10.4 5 14.8 15.6 14.8H161c-3.3-3.9-6.4-4-9.1-8.5H15.6a6.3 6.3 0 0 1-6.4-6.3v-176h253.2v94.6c4.4.8 4.8 2 8.8 3.9v-125c0-10.5-4.7-15.3-15.1-15.3H15.6zm0 9H256c3.4 0 6.3 2.8 6.3 6.3v19H9.2v-19c0-3.5 2.9-6.4 6.4-6.4zm6.3 6.3a6.3 6.3 0 1 0 0 12.6 6.3 6.3 0 0 0 0-12.6zm19 0a6.3 6.3 0 1 0 0 12.6 6.3 6.3 0 0 0 0-12.6zm19 0a6.3 6.3 0 1 0 0 12.6 6.3 6.3 0 0 0 0-12.6z"/><path class="fil0" d="M225.3 129.7c-7 0-13 4.2-16.7 10.2-6.3-2-13.2-1.8-18.8 2.7-5.6 4.6-7 11.6-6.1 18.3-6.2 2.8-11.2 7.7-12.3 14.6-1.2 6.9 1.9 13 6.5 17.7v.4c-3 6.2-3.4 13.4 0 19 3 5 8 7.7 13.5 8.8v57.2a6.8 6.8 0 0 0 10.9 5.4l23-17.2 23 17.2a6.8 6.8 0 0 0 10.8-5.4v-57.2c5.6-1 10.6-3.8 13.6-8.7 3.8-6.5 2.9-13.5 0-19.4v-.1a20.2 20.2 0 0 0 6.5-17.7c-1.2-6.9-6.2-11.8-12.3-14.6.7-6.6-.5-13.6-6.2-18.2-5.6-4.6-12.4-4.7-18.7-2.8-3.6-5.8-9.3-10.2-16.7-10.2zm15 10.5h.2l-1.2.3 1-.3zm2.5.8c.2.2.8.5.5.2l1.6 2.7c-.4-1.2-1.5-1.9-2.1-3zm-17.6 2.2c4 0 5.7 1.5 6.8 5 .4.9 1 1.8 1.6 2.5.5.5.9 1.2 2.8 2.2 1.8 1 3.5.8 4 .8 1.2 0 2.4-.3 3.5-1 2.3-1.4 6-1.4 8.2.5 2.5 2 3 4 1.7 8-.3.6-.4 1.3-.4 2 0 1.1.5 1.4 1 2.3a6.8 6.8 0 0 0 5.6 6.3c2.6.5 5.3 3.2 5.8 6s-1.2 6-3.5 7.4a6.8 6.8 0 0 0-3.2 5.8v2.9c0 1.4.4 2.9 1.3 4 1 1.4 1.7 6 .6 7.8a7.4 7.4 0 0 1-7.2 3.5 6.8 6.8 0 0 0-6.8 3l-1 .8c-1.3 1.3-2 3-2 4.8 0 3.5-.8 5-4 6l-.8.4c-1 .6.2.2-1.7.2-1.5 0-3.8-1-5.5-2.7-1.3-1.3-3-2-4.9-2h-3.8c-1.7 0-3.5.7-4.7 2-2.2 2.1-5 3-8 2-2.1-1-4-3.2-4-6 0-1.3-.6-3-1.4-4.3-.9-1.3-1.8-1.9-2.2-2.2l-.7-.4a6.8 6.8 0 0 0-5.6-1.6c-2.7.4-5.7-1-7.2-3.5-1.6-2.7-1.7-5 .5-7.7 1-1.2 1.4-2.6 1.4-4.2V191c0-2.4-1.2-4.6-3.2-5.8a7.7 7.7 0 0 1-3.5-7.5 7.7 7.7 0 0 1 5.8-5.9 6.8 6.8 0 0 0 5.6-6.3c.5-1 1-1.2 1-2.3a7 7 0 0 0-.3-2.1c-1.3-3.8-1-6 1.6-8 2.3-1.8 6-1.8 8.2-.4a6.8 6.8 0 0 0 7.5-.3c2-.6 3.7-2.2 4.4-4.3.9-2.8 4.2-5 6.8-5zm41.5 20.5l.2.2-.3 1.4c.2-.5 0-1 .1-1.6zm-82.9 0c.1.5 0 1.1 0 1.6l-.2-1.4.2-.2zm41 68.3h.3c4 3.1 19 4.2 23.6-.1v36l-19.4-15a6.8 6.8 0 0 0-8.1 0l-20.6 16V232c5.8 2.7 17.8 4 24.1 0z"/></g></svg>