<svg xmlns="http://www.w3.org/2000/svg" width="105.8" height="114.9" viewBox="0 0 5788.3 6285.8" shape-rendering="geometricPrecision" text-rendering="geometricPrecision" image-rendering="optimizeQuality" fill-rule="evenodd" clip-rule="evenodd"><defs><style>.fil0{fill:#ff7b49;fill-rule:nonzero}</style></defs><g id="Capa_x0020_1"><path class="fil0" d="M2309.5 0c-452 0-858.5 247.4-1153.3 487.8-294.8 240.8-482.7 482.3-482.7 482.3l-84.3 108 131.7 38.7s51.1 14.2 112.4 77c61 62.4 126.3 168.9 126.3 370.7 0 261.6 40.1 472.8 60.2 562.2a256.1 256.1 0 0 0-85.8 189.7c0 60.6 18.3 112.4 33.2 163 7.3 25.6 14.6 49.3 19.4 67.2 4.7 17.9 5.8 35.4 5.8 22 0 126.9 106.5 226.1 232 230.5a1209.2 1209.2 0 0 0 456.8 892v348.5c-134.6 40.8-457.9 145.2-787 300.6-214.8 101.4-430.8 223.6-599 368.5C127 4853.5 0 5026.8 0 5230.4v560.4h3868.3L3710.1 5604H186.8v-373.6c0-123.3 83.2-253.5 230.2-380.2 147-126.6 351.4-243.7 556.8-340.7 282.8-133.6 557.5-226.2 707.4-273.3v175.5l9.9 20s220.3 425.1 737.3 425.1 737.4-425 737.4-425l9.8-20.1v-176.2c24.9 7.8 53.5 17.2 85 27.8l79-170.2c-72.4-24.6-128.1-42-164-52.4v-349.2a1209.4 1209.4 0 0 0 456.8-892.4c125.5-4.4 232-103.6 232-230.6 0 13.5 1.1-4 5.9-21.9 4.7-17.9 12-41.6 19.3-67.1 15-50.7 33.2-102.5 33.2-163.1 0-76.6-34.6-144.1-87.9-192 17.2-98.4 88-520.2 88-816.8 0-335.7-125.6-576.1-294.9-725.3-152-133.6-330.9-187.2-489.2-198.5-25.5-40.5-70.8-104-164.6-177.3C2839.6 101.8 2623.6 0 2309.5 0zm0 186.8c274.3 0 444.7 85 549.4 167.1 105.1 82.1 139.8 154.3 139.8 154.3l25.5 52.2h58c124.4 0 291.9 47.5 422.2 162.4C3635 837.7 3736 1017.2 3736 1307.6c0 260.5-62 640.7-80.2 747.2h-1.5c-8 0-6.6 1.9-11.7 2.6v-282.8c0-319.6-130.6-534.5-262-661.8-131.3-127.3-268.8-174-268.8-174l-53.3-18-40.9 39.1s-58.7 57.7-200.6 122.6c-142 65-361.6 131.7-668.8 131.7-168.2 0-389.6 59.5-582 193.8-191.5 133.9-351 352.8-351.6 649.8-5.1-.8-4-3-12-3-2.3 0-4.4.7-6.6.7-19-90-49.7-266-49.7-491 0-244.5-87.5-406.8-179.1-501-39-40-47.8-33.2-81.7-53.2 64.6-76 184.6-210.6 388.9-377.3 277.7-226.6 652.7-446.2 1035-446.2zm772.7 948.6c22.6 8.8 81.8 27.4 168.6 111.3 102.1 99.2 205 257.6 205 528v588.8l140.5-82.5c24-13.8 46.3-26.2 62-34.3 1.8-1 2.6-1 4.4-2.1 42.7 4.3 73.3 34.2 73.3 71.5v.3c0 7-11.3 61.7-25.5 110.6a3443 3443 0 0 0-20.8 70.8c-5.8 22.2-12 37.9-12 70.8 0 24.8-20.5 46.6-52.6 46.6h-169.3V2743c0 506.5-365.2 925-846 1010.7l-26.7 4.3-20 18.6a197.2 197.2 0 0 1-134.7 53c-52.1 0-98.1-19.8-134.6-53l-20-18.6-26.7-4.3c-480.9-85.8-846-504.3-846-1010.7v-127.7h-169.4c-32 0-52.5-21.8-52.5-46.6 0-32.9-6.2-48.6-12.4-70.8-6.2-22.3-13.5-46.7-20.8-70.8-14.2-48.9-25.2-103.6-25.2-110.6 0-37.6 30.7-67.5 73.4-71.9 1.8 1.2 2.5 1.2 4.3 2.2 15.7 8 38 20.5 62 34.3l140.5 82.5v-304c0-232.7 116-389.2 272.2-498.3 156.2-109 354.6-160.2 475-160.2 334.6 0 582-73.3 746.5-148.5 122.2-55.8 154.3-90.1 187.5-117zM1914.7 2241.6a140.1 140.1 0 1 0 0 280.3 140.1 140.1 0 0 0 0-280.3zm1027.4 0a140.1 140.1 0 1 0 .1 280.3 140.1 140.1 0 0 0 0-280.3zM1868.1 3813a1206 1206 0 0 0 321.3 115.3c66 52.5 147.8 88 239 88 90.9 0 172.2-35.4 237.9-87.6a1187.5 1187.5 0 0 0 322.5-115.3v547.3c-11.3 22.6-159 309.3-560.4 309.3-401.3 0-549-286.7-560.4-309.3V3813zM560.3 5230.4c-51.4 0-93.4 42-93.4 93.4 0 51.5 42 93.4 93.4 93.4 51.5 0 93.4-41.9 93.4-93.4 0-51.4-42-93.4-93.4-93.4zm373.6 0c-51.4 0-93.4 42-93.4 93.4 0 51.5 42 93.4 93.4 93.4 51.5 0 93.4-41.9 93.4-93.4 0-51.4-42-93.4-93.4-93.4zm373.6 0c-51.4 0-93.4 42-93.4 93.4 0 51.5 42 93.4 93.4 93.4 51.4 0 93.4-41.9 93.4-93.4 0-51.4-42-93.4-93.4-93.4zm373.6 0c-51.4 0-93.4 42-93.4 93.4 0 51.5 42 93.4 93.4 93.4 51.5 0 93.4-41.9 93.4-93.4 0-51.4-42-93.4-93.4-93.4zm373.6 0c-51.4 0-93.4 42-93.4 93.4 0 51.5 42 93.4 93.4 93.4 51.4 0 93.4-41.9 93.4-93.4 0-51.4-42-93.4-93.4-93.4zm373.6 0c-51.4 0-93.4 42-93.4 93.4 0 51.5 42 93.4 93.4 93.4 51.5 0 93.4-41.9 93.4-93.4 0-51.4-42-93.4-93.4-93.4zm373.6 0c-51.4 0-93.4 42-93.4 93.4 0 51.5 42 93.4 93.4 93.4 51.4 0 93.4-41.9 93.4-93.4 0-51.4-42-93.4-93.4-93.4z"/><path class="fil0" d="M2527.2 2964.9a79 79 0 1 0 0-158.2h-58.4v-183.2a79 79 0 1 0-158.2 0v262.3a79 79 0 0 0 79.1 79h137.5z" stroke="#fff" stroke-width="73" stroke-miterlimit="22.9"/><path class="fil0" d="M5350.6 3960.3l-1862.4 6.4a40.9 40.9 0 0 0-36.6 24.4l-352.6 755a47.3 47.3 0 0 0 6.4 50l1256.3 1475.4c7.5 8.8 18 14 29.1 14.3h1c10.7 0 21.1-4.6 28.8-12.8L5776 4832a47 47 0 0 0 7.4-52.8l-396.5-795.6a40.7 40.7 0 0 0-36-23.3h-.2zm-48 89c-70 115-138.5 236-204.8 353.6-64.7 114.8-131.5 233.3-199.5 345.4-41-64.3-83.8-132.8-126.6-201.2-49-78.3-98-156.5-144.2-228.6L4457 4052.3l845.6-3zm-918.3 3.2c-74.9 112.7-152.8 228.6-231.3 345a63578.8 63578.8 0 0 0-232.3 346.7c-41.6-72.5-121-216.9-198-357.1l-64.7-117.7c-5.9-10.6-18.5-14-28.1-7.7a23.2 23.2 0 0 0-7.2 30.4l64.7 117.7c77.1 140.4 150 272.4 192 345.5-252-.1-571.7-.3-692.5-.5l316.4-677.3 19.2 33.7a19.5 19.5 0 0 0 28.2 7.3c9.6-6.4 12.7-20 6.7-30.5l-18.5-32.6 845.4-3zm953.4 19.7l343 688.2-120.9-.4c-11.3 0-20.5 10-20.5 22.2s9.1 22.1 20.4 22.2l124.8.3L4460 6106.8c60.1-173 128-367.3 204.5-585.5 94.3-268.7 188.2-536.4 252-720.9l385.3.2c11.4 0 20.5-10 20.5-22.2s-9.2-22.2-20.5-22.2l-359.8-.2c65-108 129-220.3 190.9-330.2 66.4-117.8 135-239 204.9-353.6zm-916.8 1.6l172.9 270c46.1 72 95 150 143.8 228.1 39.4 63 78.1 124.2 116 184h-84c-283.2 0-503.4-.4-805.6-.6a72267.6 72267.6 0 0 1 222.2-331.6c79.5-118 159-235.9 234.7-350zm-852.2 60.3c-2.6.4-5.2 1.4-7.6 3-9.7 6.3-13 20-7 30.5a137 137 0 0 0 4.2 7.2c.2.8.6 1.4 1 2l.2-.1.3.5-.3.2 6.2 11.2c3.8 7 10.6 10.9 17.6 10.9 3.5 0 7.2-1 10.5-3.2 9.7-6.3 13-19.9 7.1-30.4-1.5-2.7-3.1-5.7-5-8.5-.2-.9-.6-1.7-1-2.5l-.4.3-.4-.7.4-.3-5.3-9.4a20.2 20.2 0 0 0-20.5-10.7zm1883.5 625c-11.3 0-20.5 10-20.5 22.1 0 12.3 9 22.3 20.4 22.3l41.1.1c11.4 0 20.5-10 20.5-22.2s-9.1-22.1-20.5-22.2h-41zm-2232.5 40.2c128 .2 432.3.2 683.2.4 7.2 23 266.4 840 418.4 1293.4L3219.7 4799.3zm726.7.5l823.1.5 103 .1c-63.6 184-154.2 442.3-246.4 705.1-85.6 243.8-171.1 487.7-233.8 668.7l-.7.1c-142.9-420-429.8-1325.7-445.2-1374.5z"/></g></svg>