<?xml version="1.0" encoding="UTF-8"?>
<!DOCTYPE svg PUBLIC "-//W3C//DTD SVG 1.1//EN" "http://www.w3.org/Graphics/SVG/1.1/DTD/svg11.dtd">
<!-- Creator: CorelDRAW -->
<svg xmlns="http://www.w3.org/2000/svg" xml:space="preserve" width="22.0384mm" height="26.1865mm" version="1.1" style="shape-rendering:geometricPrecision; text-rendering:geometricPrecision; image-rendering:optimizeQuality; fill-rule:evenodd; clip-rule:evenodd"
viewBox="0 0 527.59 626.89"
 xmlns:xlink="http://www.w3.org/1999/xlink"
 xmlns:xodm="http://www.corel.com/coreldraw/odm/2003">
 <defs>
  <style type="text/css">
   <![CDATA[
    .fil0 {fill:#4D4D4D;fill-rule:nonzero}
   ]]>
  </style>
 </defs>
 <g id="Capa_x0020_1">
  <metadata id="CorelCorpID_0Corel-Layer"/>
  <path class="fil0" d="M9.36 0c-3.51,0 -6.71,1.97 -8.31,5.08 -1.61,3.12 -1.34,6.87 0.71,9.72l140.35 195.69c0.17,0.23 0.45,0.31 0.64,0.53 -64.2,39.57 -107.12,110.52 -107.12,191.32 0,123.81 100.74,224.56 224.56,224.56 123.82,0 224.56,-100.74 224.56,-224.56 0,-78.76 -40.8,-148.13 -102.34,-188.23 0.4,-0.38 0.92,-0.6 1.26,-1.08l142.18 -198.21c2.05,-2.85 2.32,-6.61 0.71,-9.74 -1.61,-3.12 -4.81,-5.08 -8.32,-5.08l-170.81 0c-3.05,0 -5.91,1.5 -7.66,3.98l-75.97 108.02 -75.97 -108.04c-1.75,-2.49 -4.61,-3.97 -7.66,-3.97l-170.81 0zm18.24 18.71l25.55 0 97.24 142.98c0.91,1.33 2.38,2.05 3.87,2.05 0.91,0 1.81,-0.26 2.61,-0.8 2.13,-1.45 2.7,-4.36 1.24,-6.51l-93.66 -137.72 110.85 0 113.15 160.91c-9.27,-1.17 -18.71,-1.85 -28.29,-1.85 -36.58,0 -71.12,8.86 -101.68,24.45 -0.28,-0.91 -0.58,-1.82 -1.17,-2.63l-129.73 -180.88zm324.68 0l111.77 0 -93.07 131.37c-1.5,2.12 -0.99,5.04 1.12,6.53 0.82,0.58 1.76,0.86 2.71,0.86 1.47,0 2.92,-0.68 3.84,-1.97l96.89 -136.78 24.49 0 -131.56 183.4c-0.63,0.88 -0.99,1.86 -1.28,2.83 -5.92,-3.22 -12.02,-6.15 -18.24,-8.85 0.1,-0.11 0.25,-0.17 0.35,-0.29l15.2 -19.88c1.57,-2.05 1.17,-4.99 -0.88,-6.56 -2.06,-1.56 -4.99,-1.16 -6.56,0.88l-15.2 19.88c-0.63,0.81 -0.85,1.79 -0.88,2.74 -11.67,-4.52 -23.8,-8.14 -36.31,-10.66 2.63,-3.17 3.09,-7.74 0.6,-11.28l-30.02 -42.67 77.05 -109.56zm-92.1 177.77c113.5,0 205.85,92.34 205.85,205.85 0,113.5 -92.34,205.84 -205.85,205.84 -113.5,0 -205.84,-92.34 -205.84,-205.84 0,-113.5 92.34,-205.85 205.84,-205.85zm8.39 36.99c-15.52,-0.42 -31.24,1.39 -46.75,5.48 -2.52,0.67 -4.02,3.22 -3.36,5.72 0.66,2.5 3.24,4 5.72,3.33 46.79,-12.3 95.65,-2.52 134.02,26.9 40.71,31.2 63.33,80.46 60.53,131.74 -0.14,2.58 1.82,4.8 4.4,4.93 0.08,0.01 0.19,0 0.27,0 2.47,0 4.52,-1.92 4.66,-4.42 2.99,-54.38 -21,-106.59 -64.16,-139.69 -27.97,-21.44 -61.18,-33.07 -95.34,-33.99zm-62.53 10.87c-0.61,-0.02 -1.21,0.08 -1.81,0.31 -4.39,1.7 -8.72,3.59 -12.96,5.66 -2.32,1.14 -3.27,3.95 -2.14,6.27 0.8,1.67 2.47,2.63 4.2,2.63 0.69,0 1.38,-0.15 2.05,-0.48 4,-1.97 8.07,-3.74 12.21,-5.36 2.42,-0.93 3.61,-3.66 2.69,-6.07 -0.7,-1.81 -2.42,-2.92 -4.24,-2.98zm-33.72 18.51c-1.18,-0.21 -2.43,0.04 -3.49,0.79 -13.48,9.54 -25.45,21.06 -35.58,34.28 -1.57,2.05 -1.17,4.99 0.88,6.56 0.85,0.66 1.84,0.97 2.83,0.97 1.41,0 2.81,-0.62 3.73,-1.83 9.55,-12.47 20.85,-23.35 33.55,-32.34 2.11,-1.5 2.6,-4.42 1.12,-6.52 -0.75,-1.05 -1.86,-1.7 -3.03,-1.9zm94.92 68.13c-1.7,0 -3.4,0.79 -4.18,2.39l-19.24 39 -43.02 6.25c-1.76,0.25 -3.23,1.49 -3.78,3.18 -0.55,1.69 -0.1,3.54 1.17,4.79l31.14 30.34 -7.36 42.85c-0.3,1.76 0.42,3.54 1.86,4.59 1.44,1.06 3.38,1.19 4.93,0.35l38.47 -20.23 38.49 20.23c0.68,0.37 1.43,0.55 2.17,0.55 0.97,0 1.95,-0.3 2.76,-0.9 1.44,-1.05 2.14,-2.83 1.85,-4.59l-7.35 -42.85 31.14 -30.34c1.29,-1.24 1.74,-3.1 1.19,-4.79 -0.55,-1.69 -2,-2.93 -3.77,-3.18l-43.04 -6.25 -19.24 -39c-0.79,-1.6 -2.48,-2.39 -4.18,-2.39zm0 15.04l16.14 32.69c0.68,1.38 2,2.34 3.53,2.56l36.06 5.23 -26.1 25.46c-1.1,1.07 -1.59,2.61 -1.33,4.13l6.16 35.93 -32.27 -16.94c-0.68,-0.36 -1.42,-0.55 -2.17,-0.55 -0.75,0 -1.48,0.18 -2.16,0.55l-32.27 16.94 6.16 -35.93c0.26,-1.52 -0.25,-3.06 -1.35,-4.13l-26.1 -25.46 36.07 -5.23c1.52,-0.22 2.83,-1.18 3.51,-2.56l16.14 -32.69zm-138.59 134.02c-0.6,0.11 -1.19,0.33 -1.74,0.68 -2.17,1.41 -2.79,4.3 -1.39,6.47 10.23,15.86 23.09,29.78 38.21,41.37 29.79,22.84 64.96,33.9 99.89,33.9 49.46,0 98.39,-22.16 130.74,-64.34 1.57,-2.05 1.19,-4.99 -0.86,-6.56 -2.07,-1.57 -5.01,-1.19 -6.58,0.86 -52.04,67.89 -149.63,80.78 -217.52,28.73 -14.26,-10.94 -26.38,-24.06 -36.02,-39.02 -1.04,-1.63 -2.93,-2.4 -4.73,-2.08z"/>
 </g>
</svg>
