<svg xmlns="http://www.w3.org/2000/svg" width="20" height="20"><g fill="#4d4d4d"><path data-name="Trazado 7136" d="M19 0H1a1 1 0 0 0-1 1v18a1 1 0 0 0 1 1h18a1 1 0 0 0 1-1V1a1 1 0 0 0-1-1zm.3 19a.3.3 0 0 1-.3.3H1a.3.3 0 0 1-.3-.3V3.3h18.6zM.7 2.7V1A.3.3 0 0 1 1 .7h18a.3.3 0 0 1 .3.3v1.7z"/><path data-name="Trazado 7137" d="M1.5 1.4a.3.3 0 0 0-.1.1.3.3 0 0 0 0 .3.3.3 0 0 0 0 .1.4.4 0 0 0 .1 0 .3.3 0 0 0 .2.1.2.2 0 0 0 .1 0 .5.5 0 0 0 .1-.1.3.3 0 0 0-.4-.5z"/><path data-name="Trazado 7138" d="M3.1 1.4a.3.3 0 0 0-.2 0 .3.3 0 0 0-.2.1.3.3 0 0 0 0 .3.3.3 0 0 0 0 .1.4.4 0 0 0 .2 0A.3.3 0 0 0 3 2a.3.3 0 0 0 .1 0 .3.3 0 0 0 0-.5z"/><path data-name="Trazado 7139" d="M4.6 1.4a.3.3 0 0 0-.4 0 .4.4 0 0 0-.1 0 .3.3 0 0 0 0 .1.3.3 0 0 0 0 .3.3.3 0 0 0 0 .1.4.4 0 0 0 .1 0 .3.3 0 0 0 .1.1.4.4 0 0 0 .3-.1.3.3 0 0 0 0-.1.3.3 0 0 0 0-.3z"/><path data-name="Trazado 7140" d="M2.3 18.7h15.4a1 1 0 0 0 1-1V5a1 1 0 0 0-1-1h-10a1 1 0 0 0-1 1v3.7H2.3a1 1 0 0 0-1 1v8a1 1 0 0 0 1 1zm-.3-1v-.4h5.3v.4a.3.3 0 0 1-.3.3H2.3a.3.3 0 0 1-.3-.3zm0-7h5.3v6H2zM18 16H8V9.7a1 1 0 0 0-.7-1v-2H18zm-5.3 1.7a.3.3 0 1 1 .3-.4.3.3 0 0 1-.3.4zm-.8.3H8a1 1 0 0 0 .1-.3v-1h4a1 1 0 0 0 0 1.3zm5.8 0h-4.3a1 1 0 0 0 0-1.3H18v1a.3.3 0 0 1-.3.3zM7.7 4.7h10a.3.3 0 0 1 .3.3v1H7.3V5a.3.3 0 0 1 .4-.3zM2.3 9.3H7a.3.3 0 0 1 .3.4v.3H2v-.3a.3.3 0 0 1 .3-.4z"/><path data-name="Trazado 7141" d="M12.7 5.7a.4.4 0 0 0 .2-.1.3.3 0 0 0 .1-.3.3.3 0 0 0 0-.1.3.3 0 0 0 0-.1.3.3 0 0 0-.6 0 .3.3 0 0 0 0 .1.3.3 0 0 0 0 .1.3.3 0 0 0 0 .3.4.4 0 0 0 .3 0z"/></g></svg>