<svg xmlns="http://www.w3.org/2000/svg" viewBox="0 0 44.31 46.67"><defs><style>.cls-1{fill:none;stroke:#4d4d4d;}</style></defs><title>Recurso 3</title><g id="Capa_2" data-name="Capa 2"><g id="_96" data-name="96"><path id="path4042" class="cls-1" d="M37.92,14.48l4.51,8.14c1.29,2.33,1.63,3.44.14,5.65-1,1-3.14,1.9-7.53,2L29,19.42Z"/><path id="path4054" class="cls-1" d="M35.7,31.64H27.35V27.75L23.76,36.6l3.59,9.9V42.6h7.19A3,3,0,0,0,36.94,41l6.21-11.23a18.58,18.58,0,0,1-7.45,1.83Z"/><path id="path4061" class="cls-1" d="M22.46,41.93h-9c-2.57,0-3.67-.25-4.76-2.69-.28-1.44,0-3.8,2.12-7.81h12Z"/><path id="path4063" class="cls-1" d="M9.32,31.34l4.17-7.54,3.23,1.94-5.55-7.66-10-1.71,3.23,1.95L.8,24.81a3.31,3.31,0,0,0,.1,3L7.11,39a20.73,20.73,0,0,1,2.21-7.64Z"/><path id="path4065" class="cls-1" d="M6.24,12.9l4.51-8.15c1.28-2.33,2-3.19,4.61-2.95,1.34.47,3.15,1.89,5.42,5.81l-6,10.84Z"/><path id="path4067" class="cls-1" d="M21.6,6.32l4.17,7.54L22.54,15.8l9.15-1.18,6.42-8.19-3.24,2L31.28,1.89A3.06,3.06,0,0,0,28.78.5H16.36A19.69,19.69,0,0,1,21.6,6.32Z"/></g></g></svg>