<svg xmlns="http://www.w3.org/2000/svg" viewBox="0 0 73 79"><defs><style>.cls-1{fill:#4d4d4d;}</style></defs><title>Recurso 4</title><g id="Capa_2" data-name="Capa 2"><g id="_96" data-name="96"><path class="cls-1" d="M49.06,68.23H24a.59.59,0,0,1-.49-.3.8.8,0,0,1-.08-.64l1.21-3.94a.62.62,0,0,1,.57-.46H47.82a.62.62,0,0,1,.57.46l1.17,3.79a.8.8,0,0,1,.1.38A.66.66,0,0,1,49.06,68.23ZM24.81,66.82H48.19l-.79-2.53H25.59Z"/><path class="cls-1" d="M55.84,79H52.37a.63.63,0,0,1-.57-.46L44.84,56a.79.79,0,0,1,.07-.64.58.58,0,0,1,.49-.3h3.53a.61.61,0,0,1,.57.46l6.91,22.56a.79.79,0,0,1-.08.64A.57.57,0,0,1,55.84,79Zm-3.05-1.4H55L48.51,56.44H46.26Z"/><path class="cls-1" d="M20.63,79H17.15a.57.57,0,0,1-.49-.3.83.83,0,0,1-.08-.64L23.5,55.5a.61.61,0,0,1,.57-.46h3.52a.59.59,0,0,1,.49.29.82.82,0,0,1,.07.65l-7,22.56A.61.61,0,0,1,20.63,79ZM18,77.6h2.21l6.52-21.16H24.49Z"/><path class="cls-1" d="M65.06,56.44H7.94c-3.16,0-5.64-2.9-5.64-6.59V8.57a.65.65,0,0,1,.6-.7H70.1a.65.65,0,0,1,.6.7V49.83C70.7,53.6,68.28,56.44,65.06,56.44ZM3.5,9.27V49.85c0,3,1.91,5.19,4.44,5.19H65.06c2.53,0,4.44-2.24,4.44-5.21V9.27Z"/><path class="cls-1" d="M72.4,9.27H.6a.66.66,0,0,1-.6-.7V4.63a.66.66,0,0,1,.6-.7H72.4a.66.66,0,0,1,.6.7V8.57A.66.66,0,0,1,72.4,9.27ZM1.2,7.87H71.8V5.34H1.2Z"/><path class="cls-1" d="M38.18,5.34H34.81a.66.66,0,0,1-.6-.71v-2a2.31,2.31,0,1,1,4.57,0v2A.66.66,0,0,1,38.18,5.34ZM35.41,3.93h2.17V2.66c0-.79-.41-1.26-1.08-1.26s-1.09.47-1.09,1.26Z"/><path class="cls-1" d="M19.68,53.08a10.32,10.32,0,1,1,0-20.62.72.72,0,0,1,.73.7v8.9h9.21a.71.71,0,0,1,.72.7A10.51,10.51,0,0,1,19.68,53.08ZM19,33.89a8.9,8.9,0,0,0,.72,17.78,9.1,9.1,0,0,0,9.18-8.2H19.68a.71.71,0,0,1-.72-.71Z"/><path class="cls-1" d="M31.27,41.86H21.34a.72.72,0,0,1-.73-.7V31.55a.72.72,0,0,1,.73-.7A10.5,10.5,0,0,1,32,41.16.71.71,0,0,1,31.27,41.86Zm-9.2-1.4h8.45a9.07,9.07,0,0,0-8.45-8.18Z"/><path class="cls-1" d="M50.47,53.18H48.84a4.93,4.93,0,0,1-4.82-5V43.47a.34.34,0,0,1,.33-.35H55a.35.35,0,0,1,.34.35v4.68A4.93,4.93,0,0,1,50.47,53.18Zm-5.78-9.35v4.32a4.24,4.24,0,0,0,4.15,4.32h1.63a4.24,4.24,0,0,0,4.14-4.32V43.83Z"/><path class="cls-1" d="M55,43.83H44.35a.34.34,0,0,1-.33-.29,11.18,11.18,0,0,0-3.21-5.69,14,14,0,0,1-4-11.48,13.64,13.64,0,0,1,11.69-12.2,6.46,6.46,0,0,1,1.16-.07,5.85,5.85,0,0,1,.6,0c.17,0,.34,0,.53,0A13.62,13.62,0,0,1,62.5,26.37a14,14,0,0,1-4,11.48,11.09,11.09,0,0,0-3.2,5.69A.36.36,0,0,1,55,43.83Zm-10.32-.71h10A12.07,12.07,0,0,1,58,37.34a13.27,13.27,0,0,0,3.81-10.89A12.93,12.93,0,0,0,50.74,14.88c-.17,0-.37,0-.56,0s-.34,0-.53,0a5.4,5.4,0,0,0-1.07.07A12.94,12.94,0,0,0,37.47,26.45a13.29,13.29,0,0,0,3.81,10.89A12.07,12.07,0,0,1,44.63,43.12Z"/><path class="cls-1" d="M56.22,46.16H43.08a.36.36,0,0,1,0-.71H56.22a.36.36,0,0,1,0,.71Z"/><path class="cls-1" d="M56.22,48.54H43.08a.36.36,0,0,1,0-.71H56.22a.36.36,0,0,1,0,.71Z"/><path class="cls-1" d="M56.22,50.92H43.08a.36.36,0,0,1,0-.71H56.22a.36.36,0,0,1,0,.71Z"/><path class="cls-1" d="M50.49,35.42H48.81a1,1,0,0,1-1-1v-1.2a6.89,6.89,0,0,1-1.63-.69l-.81.84a1,1,0,0,1-1.34,0l-1.19-1.25a1,1,0,0,1,0-1.39l.76-.8a7.82,7.82,0,0,1-.73-1.74h-1a1,1,0,0,1-1-1V25.44a1,1,0,0,1,1-1h.95a7.41,7.41,0,0,1,.7-1.87l-.64-.67a1,1,0,0,1-.28-.69,1,1,0,0,1,.28-.71l1.19-1.25a1,1,0,0,1,1.34,0l.6.63a7,7,0,0,1,1.84-.81v-.87a1,1,0,0,1,1-1h1.68a1,1,0,0,1,.95,1v.87a6.88,6.88,0,0,1,1.84.81l.6-.63a1,1,0,0,1,1.34,0l1.2,1.25a1,1,0,0,1,0,1.4l-.64.67a7.41,7.41,0,0,1,.7,1.87h1a1,1,0,0,1,.94,1v1.77a1,1,0,0,1-.94,1h-1a7.41,7.41,0,0,1-.74,1.74l.77.8a1,1,0,0,1,.28.7,1,1,0,0,1-.29.7l-1.18,1.24a1,1,0,0,1-1.35,0l-.8-.84a7.53,7.53,0,0,1-1.64.69v1.2A1,1,0,0,1,50.49,35.42Zm-4.32-3.68a.35.35,0,0,1,.18.05,6.24,6.24,0,0,0,1.92.81.35.35,0,0,1,.27.35v1.48a.27.27,0,0,0,.27.28h1.68a.27.27,0,0,0,.27-.28V33A.37.37,0,0,1,51,32.6,6.21,6.21,0,0,0,53,31.79a.32.32,0,0,1,.41.06l1,1a.27.27,0,0,0,.38,0l1.19-1.25a.25.25,0,0,0,.09-.19.28.28,0,0,0-.08-.2l-1-1a.38.38,0,0,1,0-.45,7,7,0,0,0,.86-2,.33.33,0,0,1,.33-.27h1.3a.28.28,0,0,0,.26-.28V25.44a.27.27,0,0,0-.26-.28H56.2a.34.34,0,0,1-.33-.28,6.84,6.84,0,0,0-.81-2.17.36.36,0,0,1,0-.43l.82-.87a.27.27,0,0,0,.09-.2.32.32,0,0,0-.08-.2l-1.2-1.25a.29.29,0,0,0-.39,0l-.78.82a.33.33,0,0,1-.43.05A6.24,6.24,0,0,0,51,19.7a.35.35,0,0,1-.27-.34V18.21a.28.28,0,0,0-.27-.28H48.81a.28.28,0,0,0-.27.28v1.15a.34.34,0,0,1-.27.34,6.24,6.24,0,0,0-2.11.94.32.32,0,0,1-.42-.05l-.8-.83a.27.27,0,0,0-.38,0L43.37,21a.3.3,0,0,0-.08.2.27.27,0,0,0,.07.19l.84.88a.36.36,0,0,1,0,.43,6.55,6.55,0,0,0-.81,2.17.36.36,0,0,1-.34.28H41.88a.28.28,0,0,0-.27.28v1.77a.28.28,0,0,0,.27.28h1.29a.34.34,0,0,1,.33.26,6.72,6.72,0,0,0,.87,2,.36.36,0,0,1,0,.45l-1,1a.28.28,0,0,0-.08.2.27.27,0,0,0,.08.19l1.19,1.25a.27.27,0,0,0,.38,0l1-1A.35.35,0,0,1,46.17,31.74Z"/><path class="cls-1" d="M49.65,30.21a3.89,3.89,0,1,1,3.72-3.89A3.81,3.81,0,0,1,49.65,30.21Zm0-7.06a3.18,3.18,0,1,0,3,3.17A3.11,3.11,0,0,0,49.65,23.15Z"/><path class="cls-1" d="M49.09,43.83a.35.35,0,0,1-.14,0,.33.33,0,0,1-.17-.18l-3.17-5.48a.35.35,0,0,1,.11-.48.34.34,0,0,1,.47.12L49,42.64l1.36-4.78a.35.35,0,0,1,.42-.24.35.35,0,0,1,.23.44L49.5,43.39l-.1.24A.34.34,0,0,1,49.09,43.83Z"/><path class="cls-1" d="M48.1,37.67A1.68,1.68,0,0,1,47,37.25c-.6-.49-1.24-.25-1.9.07a1.54,1.54,0,0,1-.58.2.36.36,0,0,1,0-.71,1.8,1.8,0,0,0,.31-.14,2.29,2.29,0,0,1,2.6,0c.57.47,1,.26,1.44,0a2,2,0,0,1,.86-.32A7,7,0,0,1,52,37a.36.36,0,0,1,.18.46.34.34,0,0,1-.45.19,6,6,0,0,0-1.95-.55,1.51,1.51,0,0,0-.57.23A2.32,2.32,0,0,1,48.1,37.67Z"/><path class="cls-1" d="M49.65,13a.35.35,0,0,1-.34-.36v-2.3a.35.35,0,0,1,.34-.35.35.35,0,0,1,.34.35v2.3A.35.35,0,0,1,49.65,13Z"/><path class="cls-1" d="M57.55,15.24a.41.41,0,0,1-.17-.05.36.36,0,0,1-.12-.48l1.1-2a.34.34,0,0,1,.47-.13.38.38,0,0,1,.12.49l-1.1,2A.34.34,0,0,1,57.55,15.24Z"/><path class="cls-1" d="M63.34,21.27a.33.33,0,0,1-.3-.18.36.36,0,0,1,.13-.48l1.91-1.15a.33.33,0,0,1,.46.13.36.36,0,0,1-.12.48l-1.91,1.15A.3.3,0,0,1,63.34,21.27Z"/><path class="cls-1" d="M67.66,29.51H65.45a.36.36,0,0,1,0-.71h2.21a.36.36,0,0,1,0,.71Z"/><path class="cls-1" d="M65.25,38.91a.26.26,0,0,1-.17,0l-1.91-1.15a.35.35,0,0,1-.13-.48.33.33,0,0,1,.47-.13l1.91,1.15a.36.36,0,0,1,.12.48A.33.33,0,0,1,65.25,38.91Z"/><path class="cls-1" d="M34.05,38.91a.33.33,0,0,1-.29-.18.36.36,0,0,1,.12-.48L35.8,37.1a.33.33,0,0,1,.46.13.36.36,0,0,1-.12.48l-1.92,1.15A.26.26,0,0,1,34.05,38.91Z"/><path class="cls-1" d="M33.85,29.51H31.64a.36.36,0,0,1,0-.71h2.21a.36.36,0,0,1,0,.71Z"/><path class="cls-1" d="M36,21.27a.26.26,0,0,1-.17-.05l-1.92-1.15a.36.36,0,0,1-.12-.48.33.33,0,0,1,.46-.13l1.92,1.15a.36.36,0,0,1,.12.48A.33.33,0,0,1,36,21.27Z"/><path class="cls-1" d="M41.75,15.24a.33.33,0,0,1-.29-.18l-1.11-2a.38.38,0,0,1,.13-.49.33.33,0,0,1,.46.13l1.11,2a.37.37,0,0,1-.13.48A.34.34,0,0,1,41.75,15.24Z"/></g></g></svg>