<svg xmlns="http://www.w3.org/2000/svg" width="20" height="20"><path data-name="Trazado 7124" d="M6.3 4a1.7 1.7 0 1 0-1.6 1.7A1.7 1.7 0 0 0 6.3 4zM3.7 4a1 1 0 1 1 1 1 1 1 0 0 1-1-1zm0 0" fill="#4d4d4d"/><path data-name="Trazado 7125" d="M.3 20H5v-.7H.7v-7.6h10.6V11a1.3 1.3 0 0 0-1-1.3V9h-.6v.7a1.3 1.3 0 0 0-1 1.3H8V8a1.7 1.7 0 0 0-1.7-1.7H3A1.7 1.7 0 0 0 1.3 8v3h-1a.3.3 0 0 0-.3.3v8.4a.3.3 0 0 0 .3.3zm9.7-9.7a.7.7 0 0 1 .7.7H9.3a.7.7 0 0 1 .7-.7zM2 8a1 1 0 0 1 1-1h3.3a1 1 0 0 1 1 1v3h-.6V8.3H6V11H3.3V8.3h-.6V11H2zm0 0" fill="#4d4d4d"/><path data-name="Trazado 7126" d="M19.7 11h-.4v8.3H18v.7h1.7a.3.3 0 0 0 .3-.3v-8.4a.3.3 0 0 0-.3-.3zm0 0" fill="#4d4d4d"/><path data-name="Trazado 7127" d="M17 4a1.7 1.7 0 1 0-1.7 1.7A1.7 1.7 0 0 0 17 4zm-2.7 0a1 1 0 1 1 1 1 1 1 0 0 1-1-1zm0 0" fill="#4d4d4d"/><path data-name="Trazado 7128" d="M12 8v5a.3.3 0 0 0 .3.3h1v5.3l-.6.9a.3.3 0 0 0 .3.5h4a.3.3 0 0 0 .3-.3v-6.4h1a.3.3 0 0 0 .4-.3V8A1.7 1.7 0 0 0 17 6.3h-3.3A1.7 1.7 0 0 0 12 8zm6 0v4.7h-.7V8.3h-.6v11h-1V14H15v5.3h-1.4l.3-.4a.3.3 0 0 0 .1-.2V8.3h-.7v4.4h-.6V8a1 1 0 0 1 1-1H17a1 1 0 0 1 1 1zm0 0" fill="#4d4d4d"/><path data-name="Trazado 7129" d="M8 15h.7v3.7H8zm0 0" fill="#4d4d4d"/><path data-name="Trazado 7130" d="M9.7 15h.6v3.7h-.6zm0 0" fill="#4d4d4d"/><path data-name="Trazado 7131" d="M10 12.3H8.3a.3.3 0 0 0-.3.4v1h-.7a1 1 0 0 0-1 1V18a1 1 0 0 0 .4 1.9 1 1 0 0 1 .6 0H11a1 1 0 0 0 1-1v-4.3a1 1 0 0 0-1-1h-.7v-1a.3.3 0 0 0-.3-.4zm-1.3.7h1v.7h-1zm-2 6.3A.3.3 0 1 1 7 19a.3.3 0 0 1-.3.3zm4.3-5a.3.3 0 0 1 .3.4V19a.3.3 0 0 1-.3.3H7.6a1 1 0 0 0-.6-1.2v-3.4a.3.3 0 0 1 .3-.4zm0 0" fill="#4d4d4d"/><path data-name="Trazado 7132" d="M10 0a3 3 0 1 0 3 3 3 3 0 0 0-3-3zm0 5.3A2.3 2.3 0 1 1 12.3 3 2.3 2.3 0 0 1 10 5.3zm0 0" fill="#4d4d4d"/><path data-name="Trazado 7133" d="M10.3 2.6V1.3h-.6V3a.3.3 0 0 0 .4.3l1.3-.3-.1-.7zm0 0" fill="#4d4d4d"/><path data-name="Trazado 7134" d="M1.3 13.7H2v2h-.7zm0 0" fill="#4d4d4d"/><path data-name="Trazado 7135" d="M1.3 12.3H2v.7h-.7zm0 0" fill="#4d4d4d"/></svg>