<svg xmlns="http://www.w3.org/2000/svg" viewBox="0 0 403.26 151.76"><defs><style>.cls-1{fill:#fff;}</style></defs><title>Recurso 3</title><g id="Capa_2" data-name="Capa 2"><g id="Capa_1-2" data-name="Capa 1"><path class="cls-1" d="M36.19,72.46H52.52v46.88H41.94V87.63c0-.92,0-2.2,0-3.84s0-2.91,0-3.8L31.74,119.34h-11L10.5,80c0,.89,0,2.16,0,3.8s0,2.92,0,3.84v31.71H0V72.46H16.52l9.87,36.86,9.8-36.86Zm44,40.49a8.9,8.9,0,0,0,7.08-2.84q2.47-2.82,2.47-8t-2.47-8a8.91,8.91,0,0,0-7.08-2.81A9,9,0,0,0,73.14,94q-2.48,2.82-2.48,8t2.48,8A8.93,8.93,0,0,0,80.23,113Zm20.57-10.88a18.46,18.46,0,0,1-5.08,13.06q-5.1,5.43-15.45,5.42t-15.44-5.42a19.24,19.24,0,0,1,0-26.07q5.08-5.5,15.44-5.51t15.45,5.51a18.57,18.57,0,0,1,5.08,13ZM130,83.9q7.92,0,12.4,4.93t4.48,12.73q0,8.07-4.43,13.4t-12.34,5.31a16.26,16.26,0,0,1-8-1.72,15.28,15.28,0,0,1-3.9-3.56v4.35H107.94V72.51h10.47V89.19a14.35,14.35,0,0,1,4.39-3.69A14.56,14.56,0,0,1,130,83.9Zm-2.69,28.88a7.6,7.6,0,0,0,6.3-2.82,11.63,11.63,0,0,0,2.25-7.45,14.46,14.46,0,0,0-1.11-6.1q-2.09-4.57-7.73-4.58t-7.85,4.48a14.74,14.74,0,0,0-1.11,6.17,11.67,11.67,0,0,0,2.29,7.38q2.28,2.92,7,2.92Zm37.88-32.25H154.56V72.16h10.65v8.37Zm-10.65,4.14h10.65v34.67H154.56V84.67Zm31.54,34.67H175.59V72.46H186.1v46.88Zm21-38.81H196.47V72.16h10.66v8.37Zm-10.66,4.14h10.66v34.67H196.47V84.67Zm43,17.81a13,13,0,0,1-2,.88,18.3,18.3,0,0,1-2.78.62l-2.36.38a17,17,0,0,0-4.76,1.24,4.07,4.07,0,0,0-2.43,3.85,3.78,3.78,0,0,0,1.49,3.36,6.28,6.28,0,0,0,3.63,1,12,12,0,0,0,6.26-1.72c1.89-1.14,2.89-3.23,3-6.26v-3.38Zm-6.36-4.22a18.92,18.92,0,0,0,4.16-.81c1.5-.55,2.24-1.41,2.24-2.57a3,3,0,0,0-1.71-2.94,12,12,0,0,0-5-.82q-3.72,0-5.27,1.6A6,6,0,0,0,226,95.9H215.85a12.17,12.17,0,0,1,3-7.48q4.17-4.58,14.29-4.58a28.74,28.74,0,0,1,11.73,2.25c3.4,1.51,5.12,4.36,5.12,8.54v15.9c0,1.1,0,2.44.07,4a4.53,4.53,0,0,0,.63,2.41,3.61,3.61,0,0,0,1.55,1.06v1.33H240.76a9.3,9.3,0,0,1-.66-2,16.39,16.39,0,0,1-.29-2.1,21.33,21.33,0,0,1-5,3.47,17,17,0,0,1-7.66,1.69,14.53,14.53,0,0,1-9-2.69,9,9,0,0,1-3.56-7.63,9.65,9.65,0,0,1,5.71-9.25,28.34,28.34,0,0,1,9.21-2.22l3.59-.38Zm48-14.42.5,0,.9,0v9.3c-.67-.07-1.25-.11-1.77-.13s-.94,0-1.25,0q-6.34,0-8.52,3.56a12.38,12.38,0,0,0-1.21,6.18v16.57H259.14V84.67h10v6A19.8,19.8,0,0,1,273.41,86a12.75,12.75,0,0,1,7.66-2.13ZM290.24,126l1.32.06a18.87,18.87,0,0,0,2.94-.09,5.76,5.76,0,0,0,2.37-.73,4.93,4.93,0,0,0,1.71-2.26c.53-1.14.74-1.85.64-2.1l-14.73-36.2h11.67l8.78,25.57,8.29-25.57h11.16l-13.77,34.1q-4,9.86-6.3,12.24c-1.55,1.57-4.66,2.36-9.3,2.36h-2.24c-.57,0-1.42-.05-2.54-.12Z"/><path class="cls-1" d="M232.27,119.73v-6.06a11.78,11.78,0,0,0,4.21-1.55c1.89-1.14,2.89-3.23,3-6.26v-3.38a13,13,0,0,1-2,.88,18.3,18.3,0,0,1-2.78.62l-2.36.38h0v-6l.8-.08a18.92,18.92,0,0,0,4.16-.81c1.5-.55,2.24-1.41,2.24-2.57a3,3,0,0,0-1.71-2.94,12,12,0,0,0-5-.82h-.46V83.84h.82a28.74,28.74,0,0,1,11.73,2.25c3.4,1.51,5.12,4.36,5.12,8.54v15.9c0,1.1,0,2.44.07,4a4.53,4.53,0,0,0,.63,2.41,3.61,3.61,0,0,0,1.55,1.06v1.33H240.76a9.3,9.3,0,0,1-.66-2,16.39,16.39,0,0,1-.29-2.1,21.33,21.33,0,0,1-5,3.47,15.34,15.34,0,0,1-2.52,1Zm48.8-35.89.5,0,.9,0v9.3c-.67-.07-1.25-.11-1.77-.13s-.94,0-1.25,0q-6.34,0-8.52,3.56a12.38,12.38,0,0,0-1.21,6.18v16.57H259.14V84.67h10v6A19.8,19.8,0,0,1,273.41,86a12.75,12.75,0,0,1,7.66-2.13ZM290.24,126l1.32.06a18.87,18.87,0,0,0,2.94-.09,5.76,5.76,0,0,0,2.37-.73,4.93,4.93,0,0,0,1.71-2.26c.53-1.14.74-1.85.64-2.1l-14.73-36.2h11.67l8.78,25.57,8.29-25.57h11.16l-13.77,34.1q-4,9.86-6.3,12.24c-1.55,1.57-4.66,2.36-9.3,2.36h-2.24c-.57,0-1.42-.05-2.54-.12Zm-58-42.15v7.29c-2.24.06-3.85.59-4.81,1.59A6,6,0,0,0,226,95.9H215.85a12.17,12.17,0,0,1,3-7.48q4-4.4,13.47-4.58Zm0,14.5v6a16.77,16.77,0,0,0-4.74,1.24,4.07,4.07,0,0,0-2.43,3.85,3.78,3.78,0,0,0,1.49,3.36,6.28,6.28,0,0,0,3.63,1,12.6,12.6,0,0,0,2.05-.17v6.06a18,18,0,0,1-5.14.7,14.53,14.53,0,0,1-9-2.69,9,9,0,0,1-3.56-7.63,9.65,9.65,0,0,1,5.71-9.25,28.34,28.34,0,0,1,9.21-2.22l2.79-.3ZM127,120.07v-7.29h.35a7.6,7.6,0,0,0,6.3-2.82,11.63,11.63,0,0,0,2.25-7.45,14.46,14.46,0,0,0-1.11-6.1q-2.09-4.57-7.73-4.58H127V84.12a19.31,19.31,0,0,1,3-.22q7.92,0,12.4,4.93t4.48,12.73q0,8.07-4.43,13.4t-12.34,5.31a24,24,0,0,1-3.15-.2Zm38.23-39.54H154.56V72.16h10.65v8.37Zm-10.65,4.14h10.65v34.67H154.56V84.67Zm31.54,34.67H175.59V72.46H186.1v46.88Zm21-38.81H196.47V72.16h10.66v8.37Zm-10.66,4.14h10.66v34.67H196.47ZM127,84.12v7.71q-5.67,0-7.79,4.48a14.74,14.74,0,0,0-1.11,6.17,11.67,11.67,0,0,0,2.29,7.38q2.2,2.82,6.61,2.92v7.29a13.63,13.63,0,0,1-4.85-1.52,15.28,15.28,0,0,1-3.9-3.56v4.35H107.94V72.51h10.47V89.19a14.35,14.35,0,0,1,4.39-3.69A12.4,12.4,0,0,1,127,84.12ZM80.22,120.55V113h0a8.9,8.9,0,0,0,7.08-2.84q2.47-2.82,2.47-8t-2.47-8a8.91,8.91,0,0,0-7.08-2.81h0V83.55h0q10.35,0,15.45,5.51a19.26,19.26,0,0,1,0,26.07q-5.1,5.43-15.45,5.42Zm-44-48.09H52.52v46.88H41.94V87.63c0-.92,0-2.2,0-3.84s0-2.91,0-3.8L31.74,119.34h-11L10.5,80c0,.89,0,2.16,0,3.8s0,2.92,0,3.84v31.71H0V72.46H16.52l9.87,36.86,9.8-36.86Zm44,11.09v7.67A8.94,8.94,0,0,0,73.14,94q-2.48,2.82-2.48,8t2.48,8A8.93,8.93,0,0,0,80.22,113v7.6q-10.32,0-15.39-5.42a19.24,19.24,0,0,1,0-26.07Q69.9,83.57,80.22,83.55Z"/><polygon class="cls-1" points="355.96 132 315.34 41.16 280.66 71.99 315.44 0 403.26 151.76 241.89 150.94 355.96 132"/><path class="cls-1" d="M356,132,315.34,41.16,280.66,72,315.44,0l87.82,151.76-161.37-.82Z"/></g></g></svg>