<svg xmlns="http://www.w3.org/2000/svg" width="126.2" height="51.2"><g data-name="Grupo 1930"><path data-name="Trazado 4508" d="M83.6 27.7a5.4 5.4 0 0 1 4-1.6 5.2 5.2 0 0 1 3.9 1.6 6.8 6.8 0 0 1 1.5 4.9q0 3.5-1.5 5a5 5 0 0 1-3.8 1.6 5.4 5.4 0 0 1-4-1.7q-1.6-1.6-1.6-5.2a6.3 6.3 0 0 1 1.5-4.6m-8 23.5H82V40.6a12.4 12.4 0 0 0 3.5 2.4 9.6 9.6 0 0 0 3.7.6 10.2 10.2 0 0 0 7.4-2.9q3-2.9 3-8.1 0-5.2-3-8a10.7 10.7 0 0 0-11.8-2 8.7 8.7 0 0 0-3.2 2.7v-3.1h-6.1zM54.8 27.9a6.4 6.4 0 0 1 8.6 0 6.3 6.3 0 0 1 1.7 4.7 6.4 6.4 0 0 1-1.7 4.9 6.4 6.4 0 0 1-8.6 0 7.4 7.4 0 0 1 0-9.6M48 38.5a10 10 0 0 0 4.6 3.8 16.4 16.4 0 0 0 6.5 1.3 13.4 13.4 0 0 0 9.1-3.1 10 10 0 0 0 3.6-7.9 9.9 9.9 0 0 0-3.5-7.8 13.6 13.6 0 0 0-9.2-3.1 15.4 15.4 0 0 0-6.6 1.4 10.3 10.3 0 0 0-4.5 4 10 10 0 0 0-1.6 5.3 11.2 11.2 0 0 0 1.6 6.1m-11.2-1.8a28.2 28.2 0 0 1 .5-7 4.3 4.3 0 0 1 1.5-2.4 4 4 0 0 1 2.4-.6 6.4 6.4 0 0 1 3 .9l2-4.8a9.4 9.4 0 0 0-4.3-1.1 5.9 5.9 0 0 0-2.8.7 9.6 9.6 0 0 0-2.8 2.8v-3h-6v21h6.5zM10.2 19a39 39 0 0 1 5 .2 5 5 0 0 1 2.7 1.3 3.4 3.4 0 0 1 1.1 2.6 3.5 3.5 0 0 1-.8 2.2 4.5 4.5 0 0 1-2.1 1.5 20.8 20.8 0 0 1-5.4.4H6.9v-8.2zM7 43.1V32.3h4.5a46.1 46.1 0 0 0 7.1-.4 10.9 10.9 0 0 0 3.6-1.3 8.5 8.5 0 0 0 2.9-2.9 8.3 8.3 0 0 0 1.1-4.5 8 8 0 0 0-2-5.6 9.1 9.1 0 0 0-4.9-2.9 47 47 0 0 0-8.1-.4H0v29z" fill="#464545"/><path data-name="Trazado 4510" d="M120.9 16.2l4.7-2.8V6.7L121 9.6V0l-9.2 5.4v34.3a15.5 15.5 0 0 0 .8 5.8 5.3 5.3 0 0 0 2.4 2.6 11 11 0 0 0 5 .9 29.9 29.9 0 0 0 6.3-.8l-.6-6.2a10 10 0 0 1-2.9.5 1.7 1.7 0 0 1-1.5-.7 4.5 4.5 0 0 1-.3-2z" fill="#1b78e4"/><path data-name="Trazado 4511" d="M110.3 48c-2-2.1-1.7-6.6-1.7-6.6v-21l-4.7-2.6v23.5c0 1.4 6.4 6.7 6.4 6.7" fill="#ff7b49"/></g><path data-name="Trazado 4512" d="M103.9 6.6l4.8 2.8v6.9l-4.8-2.8z" fill="#ff7b49"/></svg>