<svg xmlns="http://www.w3.org/2000/svg" viewBox="0 0 409.31 157.43"><defs><style>.cls-1,.cls-2{fill:#464545;}.cls-1,.cls-3{stroke:#fff;stroke-linejoin:round;}.cls-1{stroke-width:6.44px;}.cls-3,.cls-4{fill:none;}.cls-3{stroke-width:5.67px;}.cls-5{fill:#1b78e4;}.cls-5,.cls-6{fill-rule:evenodd;}.cls-6{fill:#ff7b49;}</style></defs><title>Recurso 2</title><g id="Capa_2" data-name="Capa 2"><g id="Capa_1-2" data-name="Capa 1"><path class="cls-1" d="M39.41,75.29H55.74v46.89H45.16V90.46c0-.91,0-2.19,0-3.83s0-2.91,0-3.8L35,122.18h-11L13.72,82.83c0,.89,0,2.16,0,3.8s0,2.92,0,3.83v31.72H3.22V75.29H19.73l9.88,36.87,9.8-36.87Zm44,40.49A8.89,8.89,0,0,0,90.53,113q2.48-2.82,2.47-8t-2.47-8a8.92,8.92,0,0,0-7.08-2.82,9,9,0,0,0-7.1,2.82c-1.64,1.88-2.47,4.56-2.47,8s.83,6.17,2.47,8a9,9,0,0,0,7.1,2.83ZM104,104.9A18.4,18.4,0,0,1,98.93,118q-5.09,5.43-15.44,5.42T68.05,118a19.24,19.24,0,0,1,0-26.07q5.08-5.51,15.44-5.5t15.44,5.5a18.54,18.54,0,0,1,5.08,13Zm29.23-18.16q7.92,0,12.4,4.93t4.48,12.72q0,8.08-4.43,13.4t-12.34,5.31a16.24,16.24,0,0,1-8-1.71,15.18,15.18,0,0,1-3.9-3.57v4.36H111.16V75.34h10.47V92a13.75,13.75,0,0,1,11.61-5.28Zm-2.7,28.88a7.61,7.61,0,0,0,6.31-2.82,11.7,11.7,0,0,0,2.25-7.45A14.64,14.64,0,0,0,138,99.24q-2.09-4.58-7.73-4.58t-7.85,4.49a14.54,14.54,0,0,0-1.11,6.16,11.7,11.7,0,0,0,2.29,7.39c1.52,1.94,3.83,2.92,6.95,2.92Zm37.89-32.25H157.78V75h10.65v8.37Zm-10.65,4.14h10.65v34.67H157.78V87.51Zm31.53,34.67h-10.5V75.29h10.5v46.89Zm21-38.81H199.69V75h10.66v8.37Zm-10.66,4.14h10.66v34.67H199.69V87.51Zm43,17.8a12.44,12.44,0,0,1-2,.88,17.16,17.16,0,0,1-2.78.62l-2.37.38a17,17,0,0,0-4.75,1.24,4.09,4.09,0,0,0-2.43,3.86,3.75,3.75,0,0,0,1.49,3.35,6.21,6.21,0,0,0,3.63,1,11.91,11.91,0,0,0,6.25-1.71c1.9-1.14,2.9-3.24,3-6.27v-3.38Zm-6.36-4.22a19.68,19.68,0,0,0,4.16-.8c1.5-.56,2.24-1.41,2.24-2.58A3,3,0,0,0,241,94.77a12.24,12.24,0,0,0-5-.81q-3.7,0-5.27,1.59a6.08,6.08,0,0,0-1.47,3.18H219.06a12.26,12.26,0,0,1,3-7.48c2.78-3,7.53-4.58,14.29-4.58A28.7,28.7,0,0,1,248,88.93q5.11,2.26,5.12,8.53v15.9c0,1.11,0,2.44.08,4a4.47,4.47,0,0,0,.63,2.41,3.62,3.62,0,0,0,1.55,1v1.34H244a9.57,9.57,0,0,1-.66-2,16.22,16.22,0,0,1-.29-2.09,21.59,21.59,0,0,1-5,3.46,16.85,16.85,0,0,1-7.66,1.69,14.53,14.53,0,0,1-9-2.69,9,9,0,0,1-3.56-7.62,9.64,9.64,0,0,1,5.71-9.25,28.31,28.31,0,0,1,9.21-2.23l3.59-.38Zm48-14.42.5,0,.89,0V96c-.66-.06-1.24-.11-1.76-.13l-1.26,0q-6.33,0-8.51,3.56c-.81,1.33-1.21,3.4-1.21,6.18v16.57H262.36V87.51h10v6a19.71,19.71,0,0,1,4.24-4.73,12.75,12.75,0,0,1,7.66-2.14Zm9.17,42.15,1.32.07a18.83,18.83,0,0,0,2.94-.1,5.76,5.76,0,0,0,2.37-.73,4.94,4.94,0,0,0,1.71-2.26c.53-1.14.74-1.84.64-2.09l-14.73-36.2h11.67l8.78,25.57,8.29-25.57h11.16L313.84,121.6q-4,9.85-6.31,12.24c-1.54,1.57-4.65,2.37-9.29,2.37H296c-.57,0-1.42-.06-2.54-.12Z"/><path class="cls-2" d="M235.49,122.56v-6a11.85,11.85,0,0,0,4.2-1.55c1.9-1.14,2.9-3.24,3-6.27v-3.38a12.44,12.44,0,0,1-2,.88,17.16,17.16,0,0,1-2.78.62l-2.37.38h0v-6l.8-.09a19.68,19.68,0,0,0,4.16-.8c1.5-.56,2.24-1.41,2.24-2.58A3,3,0,0,0,241,94.77a12.24,12.24,0,0,0-5-.81h-.45V86.68h.82A28.7,28.7,0,0,1,248,88.93q5.11,2.26,5.12,8.53v15.9c0,1.11,0,2.44.08,4a4.47,4.47,0,0,0,.63,2.41,3.62,3.62,0,0,0,1.55,1v1.34H244a9.57,9.57,0,0,1-.66-2,16.22,16.22,0,0,1-.29-2.09,21.59,21.59,0,0,1-5,3.46,15.34,15.34,0,0,1-2.52,1Zm48.8-35.89.5,0,.89,0V96c-.66-.06-1.24-.11-1.76-.13l-1.26,0q-6.33,0-8.51,3.56c-.81,1.33-1.21,3.4-1.21,6.18v16.57H262.36V87.51h10v6a19.71,19.71,0,0,1,4.24-4.73,12.75,12.75,0,0,1,7.66-2.14Zm9.17,42.15,1.32.07a18.83,18.83,0,0,0,2.94-.1,5.76,5.76,0,0,0,2.37-.73,4.94,4.94,0,0,0,1.71-2.26c.53-1.14.74-1.84.64-2.09l-14.73-36.2h11.67l8.78,25.57,8.29-25.57h11.16L313.84,121.6q-4,9.85-6.31,12.24c-1.54,1.57-4.65,2.37-9.29,2.37H296c-.57,0-1.42-.06-2.54-.12Zm-58-42.14V94q-3.36.11-4.82,1.59a6.08,6.08,0,0,0-1.47,3.18H219.06a12.26,12.26,0,0,1,3-7.48q4-4.38,13.47-4.57Zm0,14.5v6a16.5,16.5,0,0,0-4.74,1.23,4.09,4.09,0,0,0-2.43,3.86,3.75,3.75,0,0,0,1.49,3.35,6.21,6.21,0,0,0,3.63,1,12.6,12.6,0,0,0,2.05-.16v6a18,18,0,0,1-5.14.7,14.53,14.53,0,0,1-9-2.69,9,9,0,0,1-3.56-7.62,9.64,9.64,0,0,1,5.71-9.25,28.31,28.31,0,0,1,9.21-2.23l2.79-.29ZM130.2,122.9v-7.28h.34a7.61,7.61,0,0,0,6.31-2.82,11.7,11.7,0,0,0,2.25-7.45A14.64,14.64,0,0,0,138,99.24q-2.09-4.58-7.73-4.58h-.06V87a19.31,19.31,0,0,1,3-.22q7.92,0,12.4,4.93t4.48,12.72q0,8.08-4.43,13.4t-12.34,5.31a23.85,23.85,0,0,1-3.15-.2Zm38.23-39.53H157.78V75h10.65v8.37Zm-10.65,4.14h10.65v34.67H157.78V87.51Zm31.53,34.67h-10.5V75.29h10.5v46.89Zm21-38.81H199.69V75h10.66v8.37Zm-10.66,4.14h10.66v34.67H199.69ZM130.2,87v7.7q-5.67,0-7.79,4.49a14.54,14.54,0,0,0-1.11,6.16,11.7,11.7,0,0,0,2.29,7.39c1.46,1.87,3.66,2.85,6.61,2.92v7.28a13.63,13.63,0,0,1-4.85-1.51,15.18,15.18,0,0,1-3.9-3.57v4.36H111.16V75.34h10.47V92A14.63,14.63,0,0,1,126,88.33,12.1,12.1,0,0,1,130.2,87ZM83.44,123.38v-7.6h0A8.89,8.89,0,0,0,90.53,113q2.48-2.82,2.47-8t-2.47-8a8.92,8.92,0,0,0-7.08-2.82h0V86.39h0q10.35,0,15.44,5.5a19.26,19.26,0,0,1,0,26.07q-5.09,5.43-15.44,5.42Zm-44-48.09H55.74v46.89H45.16V90.46c0-.91,0-2.19,0-3.83s0-2.91,0-3.8L35,122.18h-11L13.72,82.83c0,.89,0,2.16,0,3.8s0,2.92,0,3.83v31.72H3.22V75.29H19.73l9.88,36.87,9.8-36.87Zm44,11.1v7.66a9,9,0,0,0-7.09,2.82c-1.64,1.88-2.47,4.56-2.47,8s.83,6.17,2.47,8a8.93,8.93,0,0,0,7.09,2.83v7.6q-10.32,0-15.39-5.42a19.24,19.24,0,0,1,0-26.07Q73.12,86.4,83.44,86.39Z"/><polygon class="cls-3" points="359.18 134.84 318.56 44 283.88 74.82 318.66 2.83 406.47 154.6 245.11 153.77 359.18 134.84"/><path class="cls-4" d="M359.18,134.84,318.56,44,283.88,74.82l34.78-72L406.47,154.6l-161.36-.83Z"/><path class="cls-5" d="M406.47,154.6l-47.29-19.76L318.56,44l.1-41.17Z"/><path class="cls-6" d="M406.47,154.6l-47.29-19.76L245.11,153.77Z"/><path class="cls-6" d="M283.88,74.82,318.56,44l.1-41.17Z"/></g></g></svg>